<svg xmlns="http://www.w3.org/2000/svg" viewBox="0 0 70.5 70.5"><path fill="#fefefe" d="M64.4 114.7V79.5h70.5V150H64.4zm37.6 34.6-1.7-24.2v-.3h-1a9 9 0 0 1-1.7-.3 1079.2 1079.2 0 0 0-7.8 23.2l.8.3a35.6 35.6 0 0 0 11.4 1.3zm-18.5-7.7 3.4-1.9 1 .5a29 29 0 0 0 2.7 1.1l1.5-4.6-.7-.3a23.3 23.3 0 0 1 6.1-44.8v-2.4l-.3-2.4c0-.1-.3-.1-2 .1a27 27 0 0 0-7.2 2.3l-.9.4-3.4-1.9-3.5-1.9a38.4 38.4 0 0 0-9.1 9l-.3.5 2 3.4 2 3.4-.4 1a34 34 0 0 0-.8 1.8l-.3 1-3.9 1.2-3.8 1.1s-.3 1.2-.4 2.6a55.7 55.7 0 0 0 .4 10.7s1 .4 3.9 1.1l3.8 1 .3.8.7 1.7.3 1a432.5 432.5 0 0 1-3.9 6.7c0 .2.8 1.4 2 3a47.7 47.7 0 0 0 7.3 6.6l3.5-1.9zm21.6.3a25.8 25.8 0 0 0 6.8-2.2 1286.7 1286.7 0 0 0-7.8-15.6l-.7.1-1.3.4-.7.1v.4a1616.2 1616.2 0 0 0 1.3 17h.6l1.7-.2zm-10.5-12.4 1.8-5.5-.6-.3a10 10 0 0 1 2.3-18.9c.4 0 .6-.1.6-.2l-1-11.5h-1A21.8 21.8 0 0 0 79.7 122a22.3 22.3 0 0 0 13 13c.1 0 1-2.4 2-5.4zm17.4 4.7 2.6-1.8c1-.8 2.4-2.2 2.4-2.4l-3.6-3.2-4.8-4-1.2-1-.6.4a14.3 14.3 0 0 1-1.6 1.3 391 391 0 0 0 5.8 11.3l1-.6zm12.5-.7a31.1 31.1 0 0 0 4.7-8.8 337.7 337.7 0 0 0-19.6-6.3l-.4.6-.7 1.2-.4.6.3.2a2416.5 2416.5 0 0 1 15.5 13l.5-.5zm-22.7-10a8.6 8.6 0 0 0 4.6-2.5 8.6 8.6 0 0 0 2.6-6.3c0-1.2 0-1.5-.2-2.2-.4-1.6-1.1-2.9-2.2-4a8.9 8.9 0 0 0-8.7-2.6 9 9 0 0 0 4 17.6zm24.9-1.3a29.8 29.8 0 0 0 1-9c-.1-.1-2.5 0-8.6.5l-8.6.8h-.3v.8l-.2 1.4-.1.5 1 .3 15.6 5 .2-.4zm-4.7-9.8 12.1-1h.4v-.6a36.7 36.7 0 0 0-3.4-11.3l-21.6 11.1.2.8.3 1.4.2.6 11.8-1zm-6.5-6.2 4.6-2.4-1.2-2c-.8-1.1-1.8-2.4-2.8-3.3l-.8-.8-4 4.7-4 4.8c-.1.1-.1.2.4.8l.9 1.1.3.5 1-.5 5.6-2.9zm-3-7.1 6.7-7.8.3-.4-.8-.7a31 31 0 0 0-8.6-4.5l-6.3 19.5.8.4a11.1 11.1 0 0 1 1.6 1l6.4-7.5zm-6.1-5.8 3.6-11.6-1.4-.4a40.4 40.4 0 0 0-10.7-1l2 24.2h.7l1.2.2.7.1c.2 0 .6-1.2 3.9-11.5z" transform="translate(-64.4 -79.5)"/><path fill="#efd1cf" d="M102.7 141.2v-.1.2-.1zm-.1-1.1v-.1.2-.1zm-.1-1.1v-.1.2-.1zm0-1.1v-.1.2-.1zm-.2-1.1v-.1c.1 0 .1.1 0 .2v-.1zm0-1.1v-.1.2-.1zm-.1-1.1v-.1.2-.1zm-.1-1.1v-.1.2-.1zm0-1.1v-.1.2-.1zm-.2-1.1v-.1c.1 0 .1.1 0 .2v-.1zm14.4-.5.6-.5-.5.5-.6.6.5-.6zm-14.4-.6v-.1.2zm-.1-1.1v-.1.2zm-.1-1.1v-.1.2zm0-1.1v-.1.2zm-.2-1.1v-.1.2zm-.4-2.2h.1-.1zm4.7-1.9v-.1c.2-.1.2-.1.1 0l-.2.1zm-12.1-.6-.4-.5.4.4.4.5-.4-.4zm33.9-3.8s0-.1 0 0v.1-.1zm0-1.2c0-.1.1-.1.1 0v.2-.2zm-49.2-.3s0-.1 0 0v.2-.1zm12.6-1.1v-.2.4-.2zm20.2-.3h.2-.1c-.1 0-.1 0 0 0zm1 0h.2-.1c-.1 0-.1 0 0 0zm1-.1h.2-.1s-.1 0 0 0zm1-.1h.2-.1zm1 0c.1-.1.2-.1.2 0h-.1zm1-.2h.2-.1zm1 0h.3-.2zm1.1-.1h.2-.2zm1-.1h.2-.1c-.1 0-.1 0 0 0zm1 0c0-.1.2-.1.2 0h-.1c-.1 0-.1 0 0 0zm-42-.3c0-.1 0-.2.1-.1v.2-.1zm43 .1h.2-.1c-.1 0-.1 0 0 0zm6.3-.1v-.1.2-.1zm-5.3 0h.2-.1c-.1 0-.1 0 0 0zm1 0h.2-.1s-.1 0 0 0zm-12.7-.1h.1-.1zm13.8 0h.1-.1zm-12.8 0c0-.1.1-.1.2 0h-.2v-.1zm13.8 0c0-.1.1-.1.2 0h-.2v-.1zm-12.8-.2h.2-.1c-.1 0-.1 0 0 0zm13.8 0h.2-.1c-.1 0-.1 0 0 0zm-12.8 0h.2-.1c-.1 0-.1 0 0 0zm13.8 0h.2-.1c-.1 0-.1 0 0 0zm-12.7-.1h.1-.1s-.1 0 0 0zm1-.1h.1-.1zm1 0c0-.1.1-.1.1 0-.2 0-.2 0-.1-.1zm-23-4.6.4-.4-.4.4-.4.4s0-.2.3-.4zm14-.2c-.1-.2-.1-.2 0 0h.2c0 .1 0 .1-.2 0zm-2-.4.2.2-.1-.1zm2.1-1.2.1-.1c.2-.1.2-.1 0 0l-.1.1zm-6.8-.8h.2-.1c-.1 0-.1 0 0 0zm7.7-.3.2-.1c.1-.1.1-.1 0 0-.1.2-.2.2-.2.1zm-8.6-.8h.4-.4zm9.6-.3.1-.1c.1-.1.1-.1 0 0 0 .2-.1.2-.1.1zm-11.1-.1v-.1.2-.1zm1-.6c0-.1.1-.1.1 0zm11-.4.1-.1c.2-.1.2-.1 0 0 0 .2-.1.2-.1.1zm-11-.6v-.1.2-.1zm12-.4v-.2h.1l-.2.2zm-12-.7v.2-.2zm12.9-.4.1-.2c.1 0 .1 0 0 0l-.1.2zm-13-.6v.1zm-1.2-.5v.1zm15.1 0 .1-.2c.2 0 .2 0 0 0l-.1.2zm-28.7-.6.3-.3-.2.3a2 2 0 0 1-.4.3l.3-.3zm32.3.2-.2-.2.2.1.2.2-.2-.2zm-18.8-.8c0-.1 0-.1 0 0v.1-.1zm-15.3 0 .2-.1c0-.1 0-.1 0 0l-.2.1zm31.4-.2.2-.1c.1-.1.1-.1 0 0-.1.2-.2.2-.2.1zM98.1 98c0-.1 0-.1 0 0zm-14-.1.2-.2-.2.2-.1.1v-.1zm13.9-1v.2-.1zm0-1v.2-.1zm1-.5c0-.1 0-.1 0 0zm0-1c0-.1 0-.2 0 0zm-.1-1v-.1.2-.2zm-1.3-.2h.1-.1zm1.2-.9v.2-.2zM74 91h.2c0-.2 0-.2 0 0-.1 0-.2.1-.2 0zm2-1.9V89c.2-.1.2-.1.1 0l-.2.1zm22.2-2v.2-.1zm0-1v.2-.2zm-.1-1v.1zm-.1-1v.1zm4.5-3.7h.2-.1c-.1 0-.1 0 0 0zm-3.7 0h.5-.4zm1.9 0c.1-.1.3-.1.4 0h-.4z" transform="translate(-64.4 -79.5)"/><path fill="#eac1b8" d="M98.3 149.3h.2-.2zm3.4 0h.2-.2zm-4.7-.1h.2-.1c-.1 0-.1 0 0 0zm4.9-.4c0-.1 0-.1 0 0zm-.1-1.2c0-.1 0-.1 0 0v.1-.1zm0-1.2s0-.1 0 0v.1zm-.2-1.2c.1 0 .1.1 0 .1zm0-1.1v-.1.2-.1zm-.1-1.2c0-.1 0-.1 0 0zm1.3-.9v.1zm-1.4-.3s0-.1 0 0v.1-.1zm1.3-.8v.2-.2zm-1.4-.4v.1zm1.3-.6v-.1.2-.1zm-1.4-.5v-.1c.1 0 .1.1 0 .2v-.1zm1.3-.6c0-.1 0-.1 0 0zm-1.3-.6c0-.1 0-.1 0 0zm1.2-.5c0-.1 0-.1 0 0 .1 0 .1 0 0 0 0 .1 0 0 0 0zm-1.3-.7s0-.1 0 0v.1-.1zm1.3-.4c0-.1 0-.1 0 0zm-1.4-.8v.1zm1.3-.3c0-.1 0-.1 0 0v.1-.1zm-1.4-.8v-.1.2-.1zm1.3-.3s0-.1 0 0v.1-.1zm-1.4-1c0-.1 0-.1 0 0 .1 0 .1 0 0 .1v-.1zm1.3 0v-.1.1zm-1.3-1.2s0-.1 0 0v.1zm1.2 0s0-.1 0 0c.1 0 .1 0 0 .1zm0-1v-.1.1zm-1.3-.2v.1zm-15.3-.3c0-.1 0-.1 0 0l.2.1-.2-.1zm16.5-.7v.1zm-1.3-.1c0-.1 0-.1 0 0zm-16.5-.6c-.1 0-.1 0 0 0l.2.2-.2-.2zm17.7-.4v.2-.2zm-1.3-.2c0-.1 0-.1 0 0v.1-.1zm1.2-.8v-.1.2-.1zm-1.3-.4c.1 0 .1.1 0 .1zm1.2-.7c0-.1 0-.1 0 0zm-1.3-.5c.1 0 .1.1 0 .2v-.2zm1.2-.6c0-.1 0-.1 0 0zm-1.2-.5-.4-.2h-.3.3l.4.1v.2-.1zm-1-1.4c.1 0 0 0 0 0-.1 0-.1 0 0 0zm-6.3-2a2 2 0 0 1-.3-.3l.4.4.3.4-.4-.4zm-28-4v.2-.1zm62.5-.8c.1 0 .1.1 0 .1zm-62.6-.4s0-.1 0 0v.2-.1zm11.8-.3s0-.1 0 0c.1 0 .1 0 0 .1zm51-.8v-.2.5-.3zm-18.7-.3v-.1.2-.1zm1.2-.3v-.2.4-.2zm.2-.4h.2-.2zm1 0h.2-.1c-.1 0-.2 0 0 0zm-2.4-.3v-.1.3-.2zm3.4.1h.2-.1c-.1 0-.1 0 0 0zm15.2-.3v-.1.4-.3zm-14.2.3h.2-.1c-.1 0-.1 0 0 0zm1-.1h.2-.1s-.1 0 0 0zm1-.1h.2-.1zm1 0c.1-.1.2-.1.2 0h-.1zm1-.2h.2-.1zm1 0h.3-.2zm1.1-.1h.2-.2zm1-.1h.2-.1c-.1 0-.1 0 0 0zm1 0c0-.1.2-.1.2 0h-.1c-.1 0-.1 0 0 0zm1-.2h.2-.1c-.1 0-.1 0 0 0zm1 0h.2-.1c-.1 0-.1 0 0 0zm-46.8-.2s0-.1 0 0v.1-.1zm47.9 0h.1l-.1.1s-.1 0 0 0zm1 0h.1-.1zm1 0c0-.1.1-.1.1 0-.2 0-.2 0-.1-.1zm-61.8-.4s0-.1 0 0v.1zm0-1.1c0-.1 0-.1.1 0 0 .1 0 0 0 0zm32.5-23.1v-.1.2-.1zm0-1v-.1.2-.2z" transform="translate(-64.4 -79.5)"/><path fill="#e0a39d" d="M98.7 149.3h.4-.4zm2.5 0h.3H101.2zm-4-.1h.3-.2zm4.7-.1v-.1.2-.1zm0-1.2v-.1.2-.1zm-.2-1.2c0-.1 0-.2 0 0v.1zm0-1.2c0-.1 0-.1 0 0zm-.1-1.2s0-.1 0 0v.1-.1zm-.1-1.2v.1zm-.1-1.2v.1zm1.4-.1c0-.1 0-.1 0 0zm-1.5-1c0-.1 0-.1 0 0zm1.4-.1c0-.1 0-.1 0 0v.1-.1zm-1.5-1.1c0-.1 0-.1 0 0 .1 0 .1 0 0 .1v-.1zm1.4 0c0-.1 0-.1 0 0v.1-.1zm0-1.1c0-.1 0-.1 0 0v.1-.1zm-1.4 0v-.1.1zm1.2-1.1s0-.1 0 0c.1 0 .1 0 0 .1v-.1zm-1.3-.2v.1zm1.2-.9s0-.1.1 0v.1zm-1.3-.2c0-.1 0-.2 0 0zm1.3-.9v.1zm-1.4-.3c0-.1 0-.1 0 0v.1-.1zm1.3-.8v.1zm-1.4-.4v-.1c.1 0 .1.1 0 .2v-.1zm1.3-.7v.1zm-1.3-.5v-.1.2zm1.2-.6c.1 0 .1.1 0 .2v-.2zm-18.5-.6-.2-.3.2.3.3.2-.3-.2zm17.2 0s0-.1 0 0v.1zm1.2-.4c0-.1 0-.2 0 0 .1 0 .1 0 0 0zm-17.2-.9-.5-.6.6.6.5.5-.5-.5zm15.9 0v.2-.1zm1.3-.2c0-.1 0-.2 0 0zm-1.4-.9v.1zm1.3-.2c0-.1 0-.1 0 0zm-1.4-1c.1 0 .1.1 0 .1zm1.3-.1c0-.1 0-.1 0 0zm-1.4-1c0-.1 0-.1.1 0 0 .1 0 0 0 0zm1.3-.1c0-.1 0-.1 0 0v.1-.1zm-1.3-1.1c0-.1 0-.1 0 0v.1-.1zm1.2 0c0-.1 0-.1 0 0 .1 0 .1 0 0 .1v-.1zm-2.2-.4h.2-.2zm.2-1.2h.2-.2zm1 0h.3-.2zm6.7-1.7.1-.1c.2-.1.2-.1 0 0l-.1.1zm-.8-.9.5-.4-.4.4-.4.4zm-41.3-2.5c.1 0 .1.1 0 .1zm0-1v.2-.1zm62.5-.8v.2-.2zm-50.8-.1c0-.1 0-.1 0 0v.1-.1zm-11.8-.3v-.1.2-.1zm26.1-.8s0-.1 0 0c.1 0 .1 0 0 .1v-.1zm-12.6-.3v-.2.4-.2zm31.8.1v.1zm-20.3-.7v-.3.6-.3zm37.7.1v-.1.4-.3zm-18.6 0v-.2.3-.1zm1.6-.2h.2-.1s-.1 0 0 0zm1-.1h.2-.1zm-33.3-.4v-.2.4-.2zm34.4.3h.1-.1zm1 0h.1-.1zm1-.1h.2-.2zm1-.1h.2-.1c-.1 0-.2 0 0 0zm1-.1h.2-.1c-.1 0-.1 0 0 0zm-25.7-.2v.1zm26.7.1h.2-.1c-.1 0-.1 0 0 0zm1 0h.2-.1s-.1 0 0 0zm1-.2h.2-.1zm1 0h.2-.1zm1-.1h.2-.1zm-56.9-.3v-.1.3-.2zm58 .2h.2-.2zm1 0c0-.1.1-.1.2 0h-.1c-.1 0-.1 0 0 0zm-13.5-.2h.1-.1zm14.5 0h.2-.1c-.1 0-.1 0 0 0zm-13.5 0h.2-.2zm14.6 0h.1-.1s-.1 0 0 0zm-13.6-.1h.2-.1c-.1 0-.1 0 0 0zm14.6 0h.1-.1zm-50.2-.2v.1zm36.6 0h.2l-.1.1c-.1 0-.1 0 0 0zm1 0h.2-.1c-.1 0-.1 0 0 0zm1 0h.2-.1c-.1 0-.1 0 0 0zm1-.2h.2-.1s-.1 0 0 0zm1 0h.2-.1zm1-.1h.2-.1zm1 0c.1-.1.2-.1.2 0-.2 0-.2 0-.1-.1zm1-.2h.3-.2zm1.1 0h.2-.2zm1-.1h.2-.1c-.1 0-.1 0 0 0zm1-.1h.2-.1c-.1 0-.1 0 0 0zm1 0c0-.1.2-.1.2 0h-.1c-.1 0-.1 0 0-.1zm1-.2h.2-.1c-.1 0-.1 0 0 0zm1 0h.2-.1s-.1 0 0 0zm1-.1h.2-.1zm1-.1h.2-.1zm1 0c.1-.1.2-.1.2 0-.2 0-.2 0-.1-.1zm1-.2h.3-.2zm1.1 0h.2-.2zm1-.1h.2-.1c-.1 0-.1 0 0 0zm1-.1h.2-.1c-.1 0-.1 0 0 0zm-27.3-3a2 2 0 0 1-.3-.4l.4.4.3.3-.4-.3zm1-.8c-.3-.2-.3-.2-.1-.4.1 0 .1 0 0 0l.1.4.2.3-.2-.3zm.3-.8v-.2h.1c0 .2-.2.2-.2.2zm-8.3-1h.2-.2zm1.1 0h.2-.2zm8-.1.2-.2c.2 0 .2 0 0 0l-.1.2zm-7.8-1.2h.2-.2zm8.8 0h.2c0-.2 0-.2 0 0-.1.1-.2.1-.2 0zm-10.9-.1c0-.1 0-.1 0 0v.1-.1zm1.2 0v-.1.1zm-1.3-1c0-.1 0-.1 0 0zm12 0c.2-.2.2-.2.1 0-.1.1-.2.1-.2 0zm-10.8-.1s0-.1 0 0v.1-.1zm-1.3-1c.1 0 .1.1 0 .2v-.1zm1.2 0c0-.1 0-.1 0 0v.1-.1zm11.8 0h.1c.1-.2.1-.2 0 0 0 .1-.1.2-.1 0zm-13-1v.2-.1zm13.9 0 .1-.1c.2-.1.2-.1 0 0l-.1.1zm-14-1.3c0-.1 0-.2.1-.1v.2-.2zm1.2-.2c0-.1 0-.1 0 0 .1 0 .1 0 0 .1v-.1zm13.8 0 .2-.1c0-.1 0-.1 0 0l-.2.1zm-13.9-1c0-.1 0-.1.1 0zm16.8-.6-.7-.7.7.7zm-2 .5.2-.2c.1 0 .1 0 0 0l-.1.2zm-14.8-1v.2-.2zm-15-.4.1-.2c.1 0 .1 0 0 0l-.1.2zM98 97v.1zm1.2 0V97v.2-.2zm-1.3-1s0-.1 0 0v.1zm1.2 0V96v.1zm-1.3-1s0-.1 0 0v.1-.1zm1.2 0V95v.1zm-1.3-1c0-.1 0-.1 0 0v.1-.1zm1.2 0V94v.1zm-1.4-3.2v.1zm1.2 0v-.1.2-.1zm-24.2-.4.3-.2-.2.2-.2.2.1-.2zm22.9-.6v.1zm1.2 0v-.1.2-.2zm-22.9-.6.3-.2-.2.2-.2.2.1-.2zm21.6-.4s0-.1 0 0v.1-.1zm1.2 0v-.1.1zm-1.3-1c0-.1 0-.1 0 0v.1-.1zm1.2 0v-.1.1zm0-1.1s0-.1 0 0v.1-.1zm-.2-1c0-.1 0-.1 0 0 .1 0 .1 0 0 .1v-.1zm-.2-3.1c0-.1 0-.2 0 0zm0-1v-.1.2-.2zm-.2-1v-.1c.1 0 .1.1 0 .1zm4.5-.4h.2-.2zm-2.5 0h.6-.6z" transform="translate(-64.4 -79.5)"/><path fill="#d6836c" d="m102.8 142.2-1.3-17v-.4l.4-.1 1.2-.3.9-.3a174 174 0 0 1 7.9 15.6 29.9 29.9 0 0 1-9.1 2.5zM76 140.4l-.1-.2.1.2.2.2-.2-.2zm-1.7-1.7c-.1-.1-.1-.1 0 0 .2 0 .2.1.1.1l-.1-.1zm9.6-7-.2-.3.3.2.2.3-.3-.2zm31.7-.2.1-.2v.2l-.3.1.2-.1zm-32.6-.7-.1-.2.2.2.1.2-.2-.2zm33.8-.5.1-.2c.1 0 .1 0 0 0l-.1.2zM99 123.6a9 9 0 0 1-7.8-6.9 9 9 0 0 1 4.9-10.1 9 9 0 0 1 11.3 13.1 9.3 9.3 0 0 1-8.4 3.9zm19-3.8-8.1-2.5v-.6a13 13 0 0 0 .3-2.1l16.8-1.4h.5v1.5a26.9 26.9 0 0 1-1.2 7.7l-8.3-2.5zm-11.2 2.4.2-.2-.1.2-.2.1.1-.1zm-28.5-5.7c0-.1 0-.1 0 0 .1 0 .1 0 0 0zm11.6-1.2c0-.1 0-.1 0 0zm-11.6-.6v-.2.3-.1zM90 114v-.1.2-.1zm20.1-.7v-.1h.1v.1zm1 0h.2-.2zm1-.1h.2-.2zm1-.1h.2-.1c-.1 0-.1 0 0 0zm1 0c0-.1.2-.1.2 0h-.1c-.1 0-.1 0 0 0zm-35.7-.2c0-.1 0-.1 0 0zm36.7 0h.2-.1c-.1 0-.1 0 0 0zm1 0h.2-.1s-.1 0 0 0zm1-.1h.2-.1zm1-.1h.2-.1zm1 0c.1-.1.2-.1.2 0-.2 0-.2 0-.1-.1zm1-.2h.3-.2zm1.1 0h.2-.2zm1-.1h.2-.1c-.1 0-.1 0 0 0zm1-.1h.2-.1c-.1 0-.1 0 0 0zm1 0c0-.1.2-.1.2 0h-.1c-.1 0-.1 0 0-.1zm1-.2h.2-.1c-.1 0-.1 0 0 0zm1 0h.2-.1s-.1 0 0 0zm1-.1h.2-.1zm1-.1h.2-.1zm-19.7-2.7-.9-1.1c-.4-.6-.5-.6-.4-.8.1 0 2-2.2 4-4.8l4-4.6 1 1a22.8 22.8 0 0 1 3.7 5l-11 5.7c-.1 0-.3-.1-.4-.4zm-16-1.3.3-.3.3-.2-.2.2-.3.3zm7.2-3.8v.1zm-1.3-.4s0-.1 0 0v.1zm1.2-.6v.1zm-1.3-.4s0-.1 0 0v.1-.1zm1.2-.6s0-.1 0 0v.1zm0-1s0-.1 0 0v.1-.1zM84 99.9l.2-.2v.2l-.3.1.1-.1zm14-.5s0-.1.1 0v.1-.1zm-12.9-.6.2-.2v.2l-.3.1.1-.1zm12.9-.4c0-.1 0-.1 0 0v.1-.1zm1.1-.6s0-.1.1 0v.1-.1zm-1.2-.4c0-.1 0-.1 0 0zm1.2-.6c0-.1 0-.1 0 0v.1-.1zm-1.3-.4c0-.1 0-.1 0 0zm1.2-.6c0-.1 0-.1 0 0zm-1.3-.4c0-.1 0-.2 0 0zm1.2-.6c0-.1 0-.1 0 0zm-1.3-.5v.2-.2zm1.2-.5c0-.1 0-.2 0 0zm0-1v-.1.2-.2zm-.2-1v-.1c.1 0 .1.1 0 .1zM75.1 90l.4-.4-.3.4-.4.3zm23.5-.4c0-.1 0-.1 0 0v.1-.1zm-.1-1c0-.1 0-.1 0 0zm0-1c0-.1 0-.1 0 0zm-.2-1c0-.1 0-.2 0 0 .1 0 .1 0 0 0zm0-1v-.1.2-.2zm-.1-1v-.1.1zm-.1-1v-.1.1zm-.2-3.2h.2c.2-.1.2 0 0 0H98c0 .1 0 .1 0 0zm5.3 0h.1-.1zm-1.2 0c0-.1.1-.1.2 0h-.2z" transform="translate(-64.4 -79.5)"/><path fill="#c85d4b" d="M99.6 149.3zm-2-.1h.1-.1s-.1 0 0 0zm4.2-1c0-.1 0-.1 0 0v.1-.1zm0-1.2s0-.1 0 0v.1zm-.2-1.2c.1 0 .1.1 0 .1zm0-1.2v.2-.2zm-.1-1.1c0-.1 0-.1 0 0zm-.1-1.2c0-.1 0-.1 0 0v.1-.1zm0-1.2s0-.1 0 0v.1zm-.2-1.2c.1 0 .1.1 0 .1zm0-1.2v.2-.2zm-.1-1.2c0-.1 0-.1 0 0zm-.1-1.2s0-.1 0 0v.1-.1zm0-1.2v.1zm7.2-6-2.9-5.5.5-.4 1-.8.6-.5.2.2a1242.5 1242.5 0 0 0 9.2 7.7l.3.3-.9.8a24.8 24.8 0 0 1-5.2 3.9l-2.8-5.6zm-7.4 4.8c.1 0 .1.1 0 .1zm0-1.1c0-.1 0-.2 0 0zm-.1-1.2c0-.1 0-.1 0 0zm-15-.8c-.1-.1-.1-.1 0 0l.1.1h-.1zm14.9-.4s0-.1 0 0v.1zm-.1-1.2v.1zm-16.6-.2c-.1 0-.1 0 0 0 .2.1.2.2.1.2l-.1-.1zm16.5-1v.2-.2zm0-1.1c0-.1 0-.1 0 0zm-.1-1.2c0-.1 0-.1 0 0v.1-.1zM65 117.5c0-.1 0-.1 0 0 .1 0 .1 0 0 0 0 .1 0 0 0 0zm0-2v-.3.6-.3zm11.7-.6v-.5a15.7 15.7 0 0 1 0 .5zm-11.7-.6v-.3.6-.3zm0-2c.1 0 .1.1 0 .1zm28.2-5h.2c0-.2 0-.2 0 0-.1 0-.2.1-.2 0zm-8.5-8 .4-.3-.4.4-.4.3zm12.8-8.1c0-.1 0-.1 0 0v.1-.1zm-.1-1c0-.1 0-.1 0 0zm0-1c0-.1 0-.1 0 0zm-.2-1c0-.1 0-.2 0 0 .1 0 .1 0 0 0z" transform="translate(-64.4 -79.5)"/><path fill="#c5523e" d="m75.2 139.6-.7-.7.7.6.7.8-.7-.7zm16.6-5A22 22 0 0 1 79 119.9c-.6-2.2-.8-5.2-.6-7.4.5-4.9 2.6-9.3 6-12.9a21.3 21.3 0 0 1 13.1-6.4l1 11.1c0 .3 0 .3-.7.5a10 10 0 0 0-2.2 18.9l.6.3-3.6 11-1-.5zm-7.5-2.6c-.1-.1-.1-.1 0 0l.1.1-.1-.1zm-1.6-1.5c0-.2 0-.2 0 0h.2c0 .1 0 .1-.2 0zm27.4-17.4c-.1-.9-.3-1.5-.5-2l-.2-.4 10.8-5.6 10.9-5.5a30.3 30.3 0 0 1 2.8 8.3l.5 3.2v.2l-12 1-12.2 1v-.2zm-8-8.4-1.3-.2h-1v-.5L98 80.4h2.3a29 29 0 0 1 9.6 1.3l-3.4 11-3.7 11.5-.2.6zm-18.6-6.5.4-.3-.4.4-.4.3z" transform="translate(-64.4 -79.5)"/><path fill="#b4111a" d="M97 149.1a39 39 0 0 1-7.2-1.4l3.8-11.6 3.9-11.6.5.2 1.3.1c.7 0 .9.1.9.2a5523.8 5523.8 0 0 0 1.7 24c0 .2-.2.2-2 .2H97zM79 143a37.9 37.9 0 0 1-7.7-8c-.5-.7-.6-.8-.5-1a155.3 155.3 0 0 1 3.8-6.8l-.4-1a38.9 38.9 0 0 1-1-2.4l-3.6-1-3.7-1h-.3l-.2-1.2a32.9 32.9 0 0 1 0-10.9l.1-1.2.6-.2a395.4 395.4 0 0 1 7-2l.5-1 .8-2 .4-1-2-3.4-2-3.4.5-.7A35.8 35.8 0 0 1 80 86l3.6 1.9 3.5 2 .8-.5a28.5 28.5 0 0 1 9.2-2.5 33.8 33.8 0 0 1 .4 4.4c0 .4 0 .4-.3.4l-3 .5a23.4 23.4 0 0 0-2.2 44.6l-1.5 4.5-2.8-1.1-.8-.4-3.5 1.9c-1.9 1-3.4 1.9-3.4 2l-1-.7zm37.2-15.3-7.8-6.6-.2-.2.4-.5.6-1.2.3-.6 19.6 6.2a27 27 0 0 1-5.1 9.3l-7.8-6.4zm-10.5-21.4-1.9-1a1150.6 1150.6 0 0 1 6.4-19.4 28.3 28.3 0 0 1 9 4.8l.2.3-6.6 7.7a866 866 0 0 1-6.6 7.9l-.5-.3z" transform="translate(-64.4 -79.5)"/></svg>
