<svg width="3311" height="1605" viewBox="400 0 3311 1605" fill="none" xmlns="http://www.w3.org/2000/svg"><path fill-rule="evenodd" clip-rule="evenodd" d="M1133 1602C1182 1602 1191 1602 1189 1579C1153 1301 1125 1076 1098 855L1098 855C1067 601 1037 354 995 41C991 2 973 0 916 0C865 0 854 2 849 34C824 242 798 437 772 636L772 636L772 636L772 636L772 636C734 928 695 1227 653 1581C651 1602 681 1602 715 1602C721 1602 726 1602 732 1602C791 1602 809 1602 811 1579C822 1446 833 1334 847 1206C849 1185 868 1185 905 1186C908 1186 912 1186 916 1186C919 1186 922 1186 925 1186C957 1185 984 1185 986 1206C996 1272 1004 1335 1013 1399L1013 1399C1020 1456 1028 1514 1036 1574C1040 1602 1050 1602 1097 1602C1103 1602 1110 1602 1118 1602C1124 1602 1128 1602 1133 1602ZM264 1602C451 1602 528 1478 528 1334V1195C528 1175 509 1176 470 1176L470 1176C463 1176 455 1177 446 1177C405 1177 376 1177 376 1195V1330C376 1391 342 1448 264 1448C180 1448 148 1387 148 1323V265C148 212 193 143 264 143C332 143 376 217 376 267V374C376 400 403 400 443 399H443H443H443H443H443C447 399 450 399 453 399C494 399 528 397 528 374V271C528 173 453 2 264 2C86 2 0 148 0 271V1336C0 1458 86 1602 264 1602ZM968 1042C959 928 953 837 946 746C942 681 937 615 931 539C931 530 929 514 916 514C904 514 902 530 902 537C896 625 890 707 885 784L885 784C879 874 874 958 868 1039C865 1055 886 1060 918 1060C945 1060 970 1060 968 1042ZM1784 1602C1845 1602 1861 1602 1861 1565V996C1861 992 1861 988 1861 984C1861 936 1861 903 1836 852C1812 804 1767 783 1743 771C1733 766 1727 763 1727 761C1727 758 1734 754 1744 748C1768 736 1810 713 1834 669C1859 623 1859 586 1859 537V537C1859 533 1859 529 1859 525V319C1859 239 1843 146 1775 82C1706 20 1608 2 1535 2H1405C1401 2 1397 1 1393 1C1379 0 1367 -0 1353 11C1339 25 1337 50 1337 73V1570C1337 1602 1353 1602 1405 1602C1474 1602 1483 1602 1483 1565V873C1483 838 1495 838 1586 838H1586H1586L1586 838C1591 838 1597 838 1604 838C1654 838 1715 895 1715 989V1570C1715 1602 1729 1602 1774 1602C1777 1602 1780 1602 1784 1602ZM1711 537V319C1711 267 1702 228 1663 187C1638 164 1624 153 1542 153C1521 153 1501 153 1492 169C1485 182 1485 194 1485 207V635C1485 639 1485 643 1485 648V648V648V648C1484 668 1483 687 1499 699C1510 709 1524 708 1535 708C1536 708 1538 708 1540 708C1565 708 1624 701 1665 658C1711 607 1711 569 1711 537ZM2588 1557L2588 1557C2588 1555 2588 1553 2588 1551V790C2588 788 2589 784 2589 781C2591 773 2592 764 2586 763C2569 760 2496 762 2429 763C2393 764 2359 765 2337 765C2321 765 2319 786 2319 836C2319 884 2321 902 2339 902C2345 902 2352 902 2360 901C2384 900 2414 898 2426 907C2436 915 2436 926 2435 936L2435 936C2435 937 2435 938 2435 938C2435 939 2435 940 2435 941V1334C2435 1382 2412 1453 2323 1453C2232 1453 2207 1384 2207 1327V265C2207 217 2253 143 2323 143C2392 143 2435 217 2435 267C2435 283 2436 303 2436 323C2437 343 2437 363 2437 379C2437 399 2451 402 2508 402C2570 402 2588 395 2588 374V271C2588 189 2524 2 2323 2C2118 2 2059 182 2059 271V1336C2059 1442 2130 1602 2323 1602C2393 1602 2429 1567 2452 1545C2466 1531 2476 1522 2485 1528C2503 1540 2508 1560 2512 1576C2516 1589 2518 1599 2526 1599C2534 1599 2541 1601 2547 1602C2559 1605 2569 1607 2577 1599C2589 1587 2588 1572 2588 1557ZM3310 1316C3310 1464 3249 1602 3046 1602C2856 1602 2781 1464 2781 1316V281C2781 109 2897 2 3046 2C3196 2 3310 121 3310 281V1316ZM3160 281V1309C3160 1373 3137 1448 3046 1448C2943 1448 2929 1375 2929 1309V281C2929 217 2977 143 3046 143C3112 143 3160 217 3160 281Z" fill="black"/></svg>
