<svg xmlns="http://www.w3.org/2000/svg" viewBox="0 0 107.05 22.17" fill="#187a3d"><path d="M89.91 7.50c-1.62-1.67-3.64-2.53-5.98-2.53-2.34 0-4.36.85-5.99 2.53s-2.45 3.73-2.45 6.1a8.4 8.4 0 0 0 2.43 6.02 8.13 8.13 0 0 0 6.02 2.51c2.37 0 4.4-.85 6-2.51 1.6-1.68 2.43-3.7 2.43-6.05a8.41 8.41 0 0 0-2.46-6.07m-5.98.41c1.47 0 2.72.56 3.81 1.68a5.6 5.6 0 0 1 1.61 4.01c0 1.58-.52 2.88-1.6 3.98-1.06 1.1-2.32 1.63-3.87 1.63-1.53 0-2.8-.53-3.82-1.61-1.05-1.1-1.56-2.4-1.56-3.97 0-1.58.53-2.90 1.61-4.05 1.07-1.13 2.32-1.68 3.80-1.68M15.25 0a1.47 1.47 0 0 0-1.44 1.25l-.00 5.78c-1.27-1.12-2.75-1.8-4.42-1.97h-.04c-.10-.01-.22-.01-.32-.03l-.33-.03a10.1 10.1 0 0 0-.76.01l-.06.01c-.11 0-.23.01-.34.02l-.43.04-.09.02-.28.04c-.14.01-.26.06-.41.08a7.94 7.94 0 0 0-3.55 1.98l-.04.02-.37.4-.18.21a7.34 7.34 0 0 0-.52.65 1.78 1.78 0 0 0-.15.21l-.04.06C.46 10.17 0 11.79 0 13.55l.00.44.07.78.05.33.07.33.05.26c.36 1.41 1.08 2.7 2.15 3.80a8.59 8.59 0 0 0 1.38 1.17l.23.15c.03.02.06.03.09.05l.03.01c.19.12.4.22.57.32l.38.17c.99.41 2.09.62 3.26.62h.04l.39-.01a1.36 1.36 0 0 0 .19-.01h.05l.18-.01c.04-.01.09-.01.12-.01a7.86 7.86 0 0 0 4.42-1.93v.67l.00.07a1.47 1.47 0 0 0 1.26 1.24h.38c.73-.1 1.27-.73 1.27-1.46V1.47c0-.8-.65-1.47-1.46-1.47M13.74 13.59c0 1.57-.51 2.85-1.57 3.94s-2.30 1.62-3.82 1.62a5.39 5.39 0 0 1-1.87-.32c-.02-.00-.04-.00-.05-.01l-.07-.03c-.64-.25-1.26-.67-1.79-1.23a5.46 5.46 0 0 1-1.38-2.58c-.1-.43-.14-.88-.14-1.34 0-1.57.51-2.87 1.58-4.01C5.66 8.48 6.9 7.94 8.36 7.94c1.47 0 2.69.54 3.77 1.67 1.1 1.13 1.60 2.43 1.60 3.97m21.89-.36c0-.2-.02-.43-.03-.65-.13-1.25-.52-2.41-1.15-3.45-.34-.57-.75-1.11-1.25-1.62-1.2-1.24-2.64-2.05-4.26-2.37l-.13-.01c-.11-.03-.24-.04-.35-.06l-.52-.05-.33-.02a11.34 11.34 0 0 0-.82 0c-1.50.07-2.88.50-4.08 1.30a7.49 7.49 0 0 0-.50.36l-.63.54-.32.31a8.49 8.49 0 0 0-2.45 6.10c0 1.1.19 2.17.57 3.14.39 1.03 1.02 2 1.86 2.86l.62.59a9.28 9.28 0 0 0 1.00.74l.72.39a8.75 8.75 0 0 0 1.96.64l.43.07.42.04c.13.01.26.02.40.02l.06.00a4.88 4.88 0 0 0 .37.01h.04l.39-.01.28-.01.12-.01a7.97 7.97 0 0 0 5.15-2.47c.32-.33.61-.68.86-1.04a4.51 4.51 0 0 0 .27-.40l.04-.08a1.45 1.45 0 0 0 .10-.53 1.5 1.5 0 0 0-1.50-1.49c-.5 0-.95.24-1.24.65a5.5 5.5 0 0 1-.71.89c-1.05 1.1-2.32 1.63-3.87 1.63-1.53 0-2.78-.53-3.83-1.61a7.25 7.25 0 0 1-.50-.6l-.05-.09c-.12-.18-.24-.36-.36-.60a5.01 5.01 0 0 1-.50-1.49h12.45l.11-.02c.62-.13 1.1-.65 1.16-1.30v-.04l-.01-.24m-13.64-1.11a5.36 5.36 0 0 1 .68-1.57l.04-.07c.2-.30.43-.58.7-.87 1.07-1.13 2.31-1.68 3.79-1.68s2.73.56 3.81 1.68c.50.53.89 1.11 1.17 1.74a5.44 5.44 0 0 1 .25.76zm51.46-1.14v9.57a1.48 1.48 0 0 1-1.48 1.47c-.75 0-1.39-.55-1.47-1.32v-9.68a3.2 3.2 0 0 0-.91-2.30c-.56-.57-1.19-.9-1.93-.94-.06-.01-.14-.01-.22-.01-.84 0-1.53.31-2.13.95a3.19 3.19 0 0 0-.91 2.14v.13l.00.09-.00.02v9.45a1.47 1.47 0 0 1-1.47 1.47 1.47 1.47 0 0 1-1.48-1.32l-.00-.05.01-9.64c-.01-.07-.01-.12-.01-.17-.02-.46-.41-1.37-.41-1.37s-.30-.53-.50-.74c-.60-.63-1.31-.95-2.15-.95-.83 0-1.52.31-2.13.95a3.2 3.2 0 0 0-.92 2.3v9.73a1.48 1.48 0 0 1-1.47 1.28 1.48 1.48 0 0 1-1.47-1.47V6.33c0-.82.66-1.48 1.47-1.48.60 0 1.14.38 1.37.91l.32-.21a5.89 5.89 0 0 1 2.83-.7c1.5 0 2.82.5 3.92 1.46a3.73 3.73 0 0 1 .34.34l.27.28.26-.28.35-.34a5.76 5.76 0 0 1 3.90-1.46l.50.02c1.3.1 2.45.58 3.42 1.46l.34.33a5.99 5.99 0 0 1 1.74 4.32"/><path d="M50.32 17.13c0 2.74-2.21 4.98-4.94 5.03h-5.98a1.45 1.45 0 0 1-1.44-1.45c0-.8.64-1.44 1.45-1.44h5.91a2.13 2.13 0 0 0 2.1-2.13 2.13 2.13 0 0 0-2.12-2.12h-2.86c-2.77 0-5.03-2.24-5.03-5.02a5.04 5.04 0 0 1 5.03-5.03h5.91a1.46 1.46 0 0 1 1.45 1.46 1.46 1.46 0 0 1-1.45 1.44h-5.91c-1.17 0-2.12.95-2.12 2.12 0 1.15.94 2.1 2.1 2.12h.05c.01 0 .04 0 .09-.00h2.73c.70 0 1.39.14 2.03.43a5.04 5.04 0 0 1 3 4.59m56.74-.00c0 2.74-2.22 5-4.95 5.03h-5.98a1.46 1.46 0 0 1-1.45-1.45 1.45 1.45 0 0 1 1.45-1.44h5.9c1.15-.01 2.10-.96 2.10-2.13a2.13 2.13 0 0 0-2.12-2.12h-2.63c-.07.01-.14.01-.22.01-2.77 0-5.03-2.24-5.03-5.03a5.04 5.04 0 0 1 5.03-5.03h5.90a1.47 1.47 0 0 1 1.45 1.46c0 .79-.65 1.45-1.45 1.45h-5.90a2.13 2.13 0 0 0-2.13 2.12 2.14 2.14 0 0 0 2.10 2.12h.05c.01 0 .05 0 .08-.00h2.74a4.87 4.87 0 0 1 2.03.43c1.82.8 3 2.61 3 4.59"/></svg>
