<svg width="397" height="109" viewBox="0 0 397 109" xmlns="http://www.w3.org/2000/svg"><g fill-rule="nonzero" fill="none"><path d="M169.495 63.68c2.8 0 5.254.671 7.36 2.015 2.105 1.344 3.688 3.162 4.751 5.453 1.063 2.292 1.594 4.878 1.594 7.76 0 4.408-1.241 8.054-3.724 10.935-2.483 2.881-5.81 4.322-9.98 4.322-3.953 0-7.18-1.402-9.683-4.206v12.62c0 .271-.085.489-.254.653a.88.88 0 0 1-.64.247h-4.767a.966.966 0 0 1-.656-.232c-.178-.155-.268-.377-.268-.668V65.188c0-.271.09-.489.268-.653a.932.932 0 0 1 .656-.247h4.767a.88.88 0 0 1 .64.247c.17.164.254.382.254.653v3.393h.625c1.986-3.268 5.006-4.902 9.057-4.902zm-.84 24.874c2.752 0 4.865-.86 6.34-2.578 1.473-1.719 2.21-4.034 2.21-6.947 0-2.874-.737-5.156-2.21-6.846-1.475-1.69-3.588-2.534-6.34-2.534-2.576 0-4.625.855-6.148 2.563-1.524 1.71-2.285 3.986-2.285 6.831s.761 5.141 2.285 6.89c1.523 1.747 3.572 2.62 6.148 2.62zm39.147-24.875c3.374 0 6.111.99 8.213 2.968 2.1 1.978 3.151 4.771 3.151 8.379 0 .582-.296.902-.888.96l-4.705.64c-.592.097-.917-.165-.977-.786-.138-2.114-.813-3.67-2.027-4.67-1.213-.998-2.836-1.497-4.868-1.497-1.44 0-2.757.266-3.95.8-1.194.533-2.142 1.183-2.842 1.949-.7.766-1.238 1.513-1.613 2.24-.375.727-.562 1.333-.562 1.818v16.147c0 .271-.084.49-.252.654a.87.87 0 0 1-.636.248h-4.735a.954.954 0 0 1-.651-.233c-.178-.155-.267-.378-.267-.669V65.221c0-.271.09-.49.267-.654a.922.922 0 0 1 .65-.248h4.47c.552 0 .858.3.917.902l.237 3.928h.68c1.086-1.571 2.52-2.876 4.306-3.913 1.786-1.038 3.813-1.557 6.082-1.557zm31.331 30.845c-4.25 0-7.807-1.475-10.673-4.423-2.866-2.95-4.298-6.616-4.298-11s1.432-8.05 4.298-10.999c2.866-2.948 6.423-4.423 10.673-4.423 2.788 0 5.332.674 7.632 2.021 2.3 1.348 4.103 3.203 5.41 5.566 1.306 2.363 1.959 4.975 1.959 7.835 0 2.861-.653 5.468-1.96 7.821-1.306 2.353-3.109 4.209-5.41 5.566-2.3 1.357-4.843 2.036-7.63 2.036zm-6.43-8.608c1.7 1.759 3.847 2.638 6.445 2.638 2.597 0 4.745-.88 6.444-2.638 1.698-1.759 2.547-4.03 2.547-6.814 0-2.785-.849-5.057-2.547-6.815-1.699-1.759-3.847-2.638-6.444-2.638-2.598 0-4.746.88-6.444 2.638-1.699 1.758-2.548 4.03-2.548 6.815 0 2.784.85 5.055 2.548 6.814zm55.522-21.623c.272 0 .487.082.642.248.156.165.234.384.234.657v27.976c0 1.772-.302 3.373-.906 4.804-.603 1.431-1.402 2.6-2.395 3.504-.993.906-2.157 1.67-3.49 2.293a16.713 16.713 0 0 1-4.076 1.314c-1.383.253-2.814.38-4.294.38-2.337 0-4.543-.297-6.617-.891-2.074-.594-3.86-1.397-5.36-2.41-.448-.291-.546-.7-.293-1.226l1.49-2.774c.273-.526.672-.652 1.198-.38 2.707 1.46 5.735 2.19 9.085 2.19 1.169 0 2.293-.116 3.374-.35 1.074-.23 2.107-.62 3.068-1.153a6.016 6.016 0 0 0 2.293-2.235c.564-.953.847-2.073.847-3.358v-3.855c-2.513 3.154-5.726 4.731-9.64 4.731-2.688 0-5.132-.676-7.333-2.03a13.905 13.905 0 0 1-5.112-5.475c-1.207-2.297-1.811-4.809-1.811-7.534 0-2.726.604-5.237 1.811-7.534 1.208-2.298 2.907-4.123 5.098-5.476 2.19-1.353 4.64-2.03 7.347-2.03 3.856 0 7.03 1.548 9.523 4.644l.175-3.125c.059-.604.36-.905.906-.905h4.236zm-13.596 23.266c2.408 0 4.424-.894 6.045-2.68 1.622-1.788 2.433-3.898 2.433-6.332 0-2.396-.811-4.477-2.433-6.246-1.621-1.768-3.637-2.652-6.045-2.652-2.428 0-4.452.86-6.074 2.581-1.622 1.72-2.433 3.826-2.433 6.317 0 2.529.811 4.663 2.433 6.402 1.621 1.74 3.646 2.61 6.074 2.61zm40.073-23.88c3.374 0 6.111.99 8.213 2.968 2.1 1.978 3.151 4.771 3.151 8.379 0 .582-.296.902-.888.96l-4.705.64c-.592.097-.917-.165-.977-.786-.138-2.114-.813-3.67-2.027-4.67-1.213-.998-2.836-1.497-4.868-1.497-1.44 0-2.757.266-3.95.8-1.194.533-2.142 1.183-2.842 1.949-.7.766-1.238 1.513-1.613 2.24-.375.727-.562 1.333-.562 1.818v16.147c0 .271-.084.49-.252.654a.87.87 0 0 1-.636.248h-4.735a.954.954 0 0 1-.651-.233c-.178-.155-.267-.378-.267-.669V65.221c0-.271.09-.49.267-.654a.922.922 0 0 1 .65-.248h4.47c.552 0 .858.3.917.902l.237 3.928h.68c1.086-1.571 2.52-2.876 4.306-3.913 1.786-1.038 3.813-1.557 6.082-1.557zm46.24 24.74c.393.098.673.22.84.367.167.147.25.377.25.69v3.551c0 .626-.569.959-1.708.998-2.2.039-3.826-.343-4.877-1.145-1.051-.802-1.577-2.064-1.577-3.785h-.265c-1.493 1.682-3.399 3.008-5.717 3.976-2.318.968-4.577 1.453-6.778 1.453-3.241 0-5.726-.749-7.455-2.245-1.729-1.497-2.593-3.547-2.593-6.149 0-2.621.835-4.656 2.504-6.104 1.67-1.448 4.214-2.416 7.633-2.906l6.984-1.085c1.355-.196 2.347-.401 2.976-.617.629-.215 1.041-.479 1.238-.792-.079-1.957-.649-3.35-1.71-4.182-1.06-.832-2.622-1.247-4.685-1.247-4.302 0-6.65 1.36-7.043 4.079-.059.45-.353.665-.884.646h-4.48c-.647 0-.942-.304-.883-.91.334-3.326 1.66-5.713 3.978-7.161 2.318-1.448 5.452-2.172 9.4-2.172 4.224 0 7.392.959 9.504 2.876 2.112 1.918 3.168 4.706 3.168 8.364v11.035c-.02 1.35.707 2.172 2.18 2.466zm-19.06.135c4.132 0 7.518-1.307 10.16-3.922v-6.028c-.258.566-1.53 1.024-3.814 1.375l-6.375.995c-1.728.274-2.96.742-3.695 1.405-.735.663-1.102 1.512-1.102 2.546 0 1.132.397 2.02 1.192 2.663.794.644 2.006.966 3.635.966zm48.252-24.875c2.377 0 4.116.796 5.216 2.386 1.1 1.59 1.65 4.248 1.65 7.971v18.59c0 .272-.079.49-.236.655-.157.165-.383.248-.677.248h-4.244a.948.948 0 0 1-.648-.233c-.177-.155-.265-.378-.265-.669v-18.59c0-1.785-.207-3.036-.62-3.754-.412-.717-1.11-1.076-2.091-1.076-1.042 0-1.886.403-2.535 1.207a5.452 5.452 0 0 0-1.178 2.75v19.463c0 .271-.079.49-.236.654-.157.165-.383.248-.678.248h-4.155c-.275 0-.496-.078-.663-.233-.167-.155-.25-.378-.25-.669v-18.59c0-1.804-.207-3.06-.62-3.768-.412-.708-1.11-1.062-2.092-1.062-1.04 0-1.88.398-2.52 1.193a5.675 5.675 0 0 0-1.193 2.764v19.463c0 .271-.083.49-.25.654a.864.864 0 0 1-.634.248h-4.273c-.275 0-.496-.078-.662-.233-.168-.155-.251-.378-.251-.669V65.221c0-.271.083-.49.25-.654.167-.165.388-.248.663-.248h4.008c.57 0 .874.3.914.902l.147 2.386h.442c.943-2.619 2.898-3.928 5.864-3.928 2.849 0 4.745 1.31 5.688 3.928h.353c1.061-2.619 2.986-3.928 5.776-3.928zM162.091 16.126c1.86-.801 3.86-1.201 6.001-1.201 2.141 0 4.112.395 5.914 1.186 1.802.791 3.293 1.86 4.475 3.208 1.182 1.347 2.097 2.905 2.746 4.672.65 1.767.974 3.637.974 5.609 0 1.191-.121 2.04-.363 2.549-.243.507-.76.761-1.555.761h-20.807c.33 2.285 1.385 4.106 3.168 5.463 1.782 1.357 4.01 2.036 6.683 2.036 2.693 0 5.134-.84 7.324-2.52.464-.35.881-.341 1.249.03l1.947 1.992c.465.469.465.918 0 1.347-2.983 3.008-6.713 4.511-11.188 4.511-4.572 0-8.287-1.47-11.144-4.408-2.858-2.94-4.287-6.615-4.287-11.029 0-2.148.373-4.164 1.119-6.048.746-1.885 1.763-3.516 3.051-4.892 1.288-1.377 2.853-2.466 4.694-3.266zm5.71 3.774c-2.28 0-4.202.718-5.767 2.154-1.565 1.437-2.502 3.372-2.812 5.806h16.985c-.232-2.414-1.111-4.344-2.638-5.79-1.526-1.447-3.449-2.17-5.767-2.17zm51.123 22.816c.236.268.3.513.191.733-.107.22-.348.33-.72.33h-5.562c-.47 0-.824-.162-1.06-.488l-8.592-10.002-8.592 10.002c-.255.326-.618.488-1.089.488h-5.532c-.373 0-.613-.11-.72-.33-.109-.22-.045-.465.19-.733l12.036-13.795-11.212-12.933c-.235-.268-.299-.512-.191-.733.108-.22.348-.33.72-.33h5.504c.47 0 .833.172 1.088.517l7.798 9.082 7.798-9.082c.255-.325.618-.498 1.089-.517h5.473c.373 0 .618.105.736.316.117.21.059.46-.177.747l-11.152 12.933 11.976 13.795zm14.101-26.59c1.86-.801 3.86-1.201 6-1.201 2.142 0 4.113.395 5.915 1.186 1.801.791 3.293 1.86 4.475 3.208 1.182 1.347 2.097 2.905 2.746 4.672.65 1.767.974 3.637.974 5.609 0 1.191-.122 2.04-.364 2.549-.242.507-.76.761-1.554.761H230.41c.329 2.285 1.385 4.106 3.167 5.463 1.782 1.357 4.01 2.036 6.684 2.036 2.693 0 5.134-.84 7.323-2.52.465-.35.882-.341 1.25.03l1.947 1.992c.465.469.465.918 0 1.347-2.984 3.008-6.713 4.511-11.189 4.511-4.572 0-8.286-1.47-11.144-4.408-2.858-2.94-4.286-6.615-4.286-11.029 0-2.148.373-4.164 1.118-6.048.746-1.885 1.764-3.516 3.052-4.892 1.288-1.377 2.852-2.466 4.693-3.266zm5.71 3.774c-2.28 0-4.203.718-5.767 2.154-1.566 1.437-2.503 3.372-2.812 5.806h16.984c-.232-2.414-1.11-4.344-2.637-5.79-1.527-1.447-3.45-2.17-5.768-2.17zm37.83 19.894c3.133 0 5.619-1.191 7.457-3.574.348-.45.745-.527 1.19-.234l3.394 1.962c.542.332.639.733.29 1.201-1.315 2.012-3.06 3.618-5.237 4.819-2.176 1.2-4.58 1.801-7.21 1.801-4.392 0-8.043-1.474-10.955-4.423-2.911-2.949-4.367-6.615-4.367-10.999s1.456-8.05 4.367-11c2.912-2.948 6.563-4.422 10.954-4.422 2.631 0 5.04.595 7.225 1.787 2.186 1.19 3.927 2.792 5.224 4.803.328.47.232.87-.29 1.202l-3.396 1.991c-.444.274-.841.196-1.19-.234-1.837-2.382-4.323-3.574-7.457-3.574-2.67 0-4.88.884-6.63 2.651-1.75 1.768-2.626 4.033-2.626 6.796s.875 5.028 2.626 6.796c1.75 1.767 3.96 2.65 6.63 2.65zm46.585-24.87c.276 0 .499.083.666.248.168.165.252.383.252.654v27.379c0 .271-.084.49-.252.654-.167.165-.39.247-.666.247h-4.475c-.573 0-.88-.3-.919-.901l-.237-3.953h-.652c-1.007 1.608-2.35 2.93-4.03 3.968-1.68 1.036-3.674 1.554-5.986 1.554-3.26 0-5.867-1.056-7.823-3.168-1.956-2.112-2.934-5.067-2.934-8.864V15.826c0-.271.08-.49.237-.654.159-.165.376-.247.652-.247h4.742c.276 0 .499.082.666.247.168.165.252.383.252.654v15.956c0 2.403.583 4.18 1.749 5.334 1.165 1.153 2.785 1.73 4.86 1.73 1.343 0 2.573-.258 3.689-.771s1.99-1.129 2.623-1.846c.632-.717 1.116-1.4 1.452-2.049.335-.649.503-1.157.503-1.526V15.826c0-.271.08-.49.237-.654.158-.165.376-.247.652-.247h4.742zm37.595 24.474c.353.446.382.852.088 1.22-.882 1.047-2.172 2.001-3.868 2.863-1.697.862-3.731 1.293-6.104 1.293-8.002 0-12.003-3.932-12.003-11.799V20.537h-7.884a.885.885 0 0 1-.647-.261.864.864 0 0 1-.264-.64v-3.603c0-.272.083-.49.25-.654.166-.165.387-.247.661-.247h7.884l.02-9.285c0-.271.084-.485.25-.64.167-.155.388-.232.662-.232h4.707c.255 0 .466.078.633.233.166.154.25.368.25.639l-.02 9.285h11.943c.255 0 .466.082.632.247.167.164.25.382.25.654v3.603a.89.89 0 0 1-.25.64.837.837 0 0 1-.632.261H345.36v11.741c0 1.337.18 2.465.544 3.386.363.92.873 1.613 1.53 2.077a6.487 6.487 0 0 0 2.059.989c.716.193 1.534.29 2.456.29 1.98 0 3.824-.668 5.53-2.005.452-.426.873-.407 1.265.058l2 2.325zm15.146-23.272c1.86-.801 3.86-1.201 6.001-1.201 2.141 0 4.112.395 5.914 1.186 1.802.791 3.293 1.86 4.475 3.208 1.182 1.347 2.097 2.905 2.746 4.672.65 1.767.974 3.637.974 5.609 0 1.191-.121 2.04-.363 2.549-.243.507-.76.761-1.555.761h-20.807c.33 2.285 1.385 4.106 3.168 5.463 1.782 1.357 4.01 2.036 6.683 2.036 2.693 0 5.134-.84 7.324-2.52.464-.35.881-.341 1.249.03l1.947 1.992c.465.469.465.918 0 1.347-2.983 3.008-6.713 4.511-11.188 4.511-4.572 0-8.287-1.47-11.145-4.408-2.857-2.94-4.286-6.615-4.286-11.029 0-2.148.373-4.164 1.119-6.048.746-1.885 1.763-3.516 3.051-4.892 1.288-1.377 2.853-2.466 4.693-3.266zm5.71 3.774c-2.28 0-4.202.718-5.767 2.154-1.565 1.437-2.502 3.372-2.812 5.806h16.985c-.232-2.414-1.112-4.344-2.638-5.79-1.526-1.447-3.449-2.17-5.768-2.17z" fill="#FFF"/><path d="M102.022 37.886V19.427c0-2.582-1.455-3.873-4.363-3.873H82.51a1.87 1.87 0 0 1-1.333-.515c-.364-.342-.584-.776-.584-1.3V1.875c0-.565.22-1.019.584-1.361A1.87 1.87 0 0 1 82.511 0h26.297c1.171 0 2.312.1 3.423.303 1.11.201 2.282.615 3.514 1.24a11.807 11.807 0 0 1 3.212 2.36c.909.949 1.646 2.23 2.211 3.844.566 1.613.849 3.47.849 5.568v23.421c.04 1.09.262 1.877.666 2.36l12.18 14.102c.645.767.605 1.594-.122 2.481l-12.058 13.799c-.444.484-.666 1.271-.666 2.36V95.14c0 2.622-.414 4.852-1.243 6.688-.828 1.835-1.938 3.207-3.332 4.115-1.394.908-2.787 1.553-4.18 1.937-1.394.383-2.879.575-4.454.575H82.51c-.525 0-.97-.162-1.333-.485a1.716 1.716 0 0 1-.584-1.331V94.715c0-.564.22-1.018.584-1.361a1.87 1.87 0 0 1 1.333-.515H97.66c2.908 0 4.363-1.25 4.363-3.752V70.749c0-1.009.242-1.755.727-2.24l13.31-13.952a.217.217 0 0 0 0-.298l-13.31-14.194c-.485-.444-.728-1.17-.728-2.179zm-32.788-8.585L93.083 53.15a1.523 1.523 0 0 1 0 2.154l-23.85 23.849a1.523 1.523 0 0 1-2.153 0l-23.85-23.85a1.523 1.523 0 0 1 0-2.153L67.08 29.3a1.523 1.523 0 0 1 2.154 0zm-35.937 8.585c0 1.009-.243 1.735-.728 2.18L19.26 54.258a.217.217 0 0 0 0 .298L32.57 68.51c.485.484.728 1.23.728 2.24v18.337c0 2.501 1.454 3.752 4.362 3.752h15.148c.525 0 .97.172 1.333.515.364.343.584.797.584 1.361v11.923c0 .565-.22 1.009-.584 1.331-.363.323-.808.485-1.333.485H26.511c-1.576 0-3.06-.192-4.454-.575-1.394-.384-2.787-1.03-4.18-1.937-1.394-.908-2.505-2.28-3.333-4.115-.828-1.836-1.242-4.065-1.242-6.688v-23.3c0-1.09-.223-1.877-.667-2.36L.577 55.678c-.727-.887-.767-1.715-.12-2.481l12.178-14.101c.404-.485.626-1.271.667-2.36V13.314c0-2.099.282-3.955.848-5.568.565-1.614 1.303-2.895 2.211-3.843a11.807 11.807 0 0 1 3.212-2.36C20.805.917 21.976.503 23.087.302A19.123 19.123 0 0 1 26.511 0h26.296c.525 0 .97.171 1.333.515.364.342.584.796.584 1.361v11.862c0 .525-.22.959-.584 1.301a1.87 1.87 0 0 1-1.333.515H37.66c-2.908 0-4.362 1.291-4.362 3.873v18.459z" fill="#4547E0"/></g></svg>
