<svg viewBox="0 0 60 60" version="1.1" xmlns="http://www.w3.org/2000/svg" style="background: #1649BF"><g transform="translate(-780, -40)" fill="#FFFFFF"><path d="M780,4 L840,4 L840,1 L780,1 L780,4 Z M794,55 L794,84.65 L796.806,84.65 L796.806,72.739 C796.806,69.633 799.325,67.104 802.420,67.104 C805.516,67.104 808.031,69.633 808.031,72.739 L808.031,84.65 L810.838,84.65 L810.838,72.739 C810.838,68.077 807.062,64.288 802.420,64.288 C800.271,64.288 798.311,65.106 796.819,66.447 L796.819,55 L794,55 Z M817.582,63.931 C815.372,63.931 813.367,64.798 811.862,66.199 L812.163,66.653 C812.613,67.33 812.972,68.051 813.248,68.805 C814.281,67.549 815.840,66.746 817.582,66.746 C820.674,66.746 823.193,69.276 823.193,72.382 L823.193,72.385 L823.193,84.293 L826,84.293 L826,72.385 L826,72.379 C826,70.658 825.483,69.057 824.598,67.72 L824.598,67.723 C824.537,67.629 824.473,67.543 824.409,67.452 C824.345,67.365 824.280,67.278 824.213,67.191 C824.139,67.098 824.068,67.008 823.995,66.917 C823.870,66.776 823.744,66.634 823.616,66.502 C823.542,66.424 823.465,66.35 823.385,66.276 C823.289,66.183 823.190,66.093 823.090,66.002 C823.004,65.932 822.917,65.854 822.830,65.787 C822.689,65.671 822.542,65.561 822.394,65.458 C822.320,65.406 822.243,65.354 822.169,65.307 C821.999,65.194 821.829,65.087 821.650,64.991 C821.592,64.955 821.531,64.923 821.473,64.894 C821.307,64.807 821.142,64.726 820.976,64.653 C820.909,64.623 820.845,64.594 820.774,64.566 C820.569,64.478 820.357,64.401 820.138,64.33 C820.084,64.314 820.026,64.298 819.969,64.282 C819.773,64.224 819.577,64.172 819.382,64.131 C819.330,64.118 819.285,64.104 819.234,64.095 C819,64.05 818.766,64.015 818.525,63.985 C818.461,63.979 818.400,63.976 818.339,63.969 C818.095,63.947 817.855,63.931 817.611,63.931 L817.582,63.931 Z"></path></g></svg>
