<svg viewBox="-3 0 171 28" width="350" height="57" fill="black" xmlns="http://www.w3.org/2000/svg"><path d="M12.5 22.66c-1.15 0-2.15-.25-3-.75a5.09 5.09 0 01-1.94-2.04 10.80 10.80 0 01-.99-2.74A14.74 14.74 0 016.25 14c0-.83.05-1.62.16-2.38.10-.75.30-1.52.60-2.31a7.37 7.37 0 011.12-2.03 5.11 5.11 0 011.80-1.40c.74-.36 1.59-.53 2.54-.53 1.15 0 2.15.25 3 .75.84.50 1.51 1.21 1.94 2.04.45.86.78 1.77.99 2.74.20.96.31 2.00.31 3.12a16.7 16.7 0 01-.16 2.38 10.63 10.63 0 01-.61 2.31c-.30.78-.67 1.46-1.13 2.03-.45.57-1.05 1.04-1.79 1.40-.74.36-1.59.53-2.54.53zm2.20-6.37c.59-.6.93-1.43.91-2.29 0-.89-.29-1.65-.89-2.29-.59-.63-1.34-.95-2.22-.95s-1.63.31-2.23.95A3.23 3.23 0 009.37 14c0 .89.29 1.65.89 2.29.59.63 1.34.95 2.22.95s1.62-.31 2.20-.95zM12.5 27C19.40 27 25 21.18 25 14S19.40 1 12.5 1 0 6.82 0 14s5.59 13 12.5 13z"/><g transform="translate(30, -3.5)"><path d="M6.41 17.75c0 1.09.05 2.09.15 2.98.11.87.29 1.62.53 2.25.23.62.54 1.11.91 1.46.37.33.82.50 1.36.50.54 0 .99-.17 1.36-.50.37-.35.67-.84.91-1.46.23-.62.40-1.37.50-2.25.11-.89.17-1.89.17-2.98 0-1.08-.06-2.06-.17-2.96-.10-.89-.27-1.65-.50-2.27-.23-.64-.54-1.13-.91-1.46-.37-.35-.82-.53-1.36-.53s-.99.17-1.36.53c-.37.33-.67.82-.91 1.46-.23.62-.41 1.38-.53 2.27-.10.89-.15 1.88-.15 2.96zm2.96-8.75c1.06 0 2.08.17 3.06.53a7.36 7.36 0 012.60 1.62c.76.72 1.35 1.63 1.79 2.73.45 1.09.68 2.38.68 3.87 0 1.48-.22 2.77-.68 3.87-.43 1.09-1.03 2.00-1.79 2.73a7.07 7.07 0 01-2.60 1.62 8.92 8.92 0 01-3.06.53 9.14 9.14 0 01-3.08-.53 7.36 7.36 0 01-2.60-1.62c-.74-.72-1.34-1.63-1.79-2.73-.43-1.09-.65-2.38-.65-3.87 0-1.48.21-2.77.65-3.87.45-1.09 1.06-2.00 1.82-2.73a7.36 7.36 0 012.60-1.62 8.92 8.92 0 013.06-.53zm9.32 17.03v-1.29l1.13-.25c.01-.60.02-1.25.02-1.94V10.21l-1.36-.17V8.89l5.77-1.13.43.27-.10 3.51v3.18c.99-.97 2.19-1.46 3.59-1.46.69 0 1.34.13 1.94.40.60.27 1.13.67 1.59 1.21.45.54.81 1.21 1.06 2.02.27.81.40 1.75.40 2.83 0 1.04-.16 1.98-.48 2.80-.30.81-.70 1.50-1.21 2.07a5.24 5.24 0 01-1.74 1.31 4.83 4.83 0 01-2.05.45c-.74 0-1.38-.12-1.92-.38a4.12 4.12 0 01-1.39-1.03l-.50 1.41-5.18-.38zm7.16-2.05c.67 0 1.21-.33 1.62-1.01.40-.69.60-1.76.60-3.21 0-1.45-.20-2.47-.60-3.06-.40-.60-.94-.91-1.62-.91-.40 0-.8.12-1.18.38v7.46c.33.23.73.35 1.19.35zm13.10 2.42c-1.75 0-3.30-.41-4.65-1.24l.12-3.23h2.30l.40 2.63c.28.11.57.21.86.27.30.05.62.07.96.07.64 0 1.13-.09 1.49-.27.35-.20.53-.54.53-1.03 0-.33-.13-.63-.40-.88-.25-.27-.80-.52-1.64-.76l-1.44-.37c-1.01-.27-1.78-.74-2.30-1.41-.50-.67-.75-1.51-.75-2.50 0-.62.11-1.20.35-1.74a3.95 3.95 0 011.08-1.39c.48-.38 1.08-.69 1.77-.91.71-.22 1.51-.33 2.43-.33.77 0 1.49.08 2.15.25.65.16 1.34.42 2.05.75l-.20 2.85H41.75l-.55-2.25a4.91 4.91 0 00-.55-.07 3.89 3.89 0 00-.68-.05c-.48 0-.89.11-1.21.32-.32.20-.48.52-.48.96 0 .13.02.27.07.40.05.11.14.24.27.38a4.3 4.3 0 00.60.37c.27.11.62.23 1.06.35l1.41.38c1.18.32 2.02.81 2.53 1.49.52.65.78 1.49.78 2.50 0 .74-.14 1.39-.43 1.94a3.84 3.84 0 01-1.21 1.39c-.52.37-1.15.64-1.89.83-.74.18-1.57.27-2.50.27zM52.83 13.27c.91 0 1.70.14 2.37.43.67.28 1.24.68 1.69 1.18a4.85 4.85 0 011.01 1.77c.23.67.35 1.39.35 2.15 0 .27-.00.50-.02.71-.01.18-.05.39-.10.63H51.11c.13 1.24.49 2.15 1.08 2.70.59.54 1.26.81 2.02.81.64 0 1.18-.11 1.64-.32a5.07 5.07 0 001.24-.86l.98.96c-.54 1.03-1.27 1.78-2.20 2.25-.92.47-2.02.70-3.29.70a7.82 7.82 0 01-2.63-.43 6.19 6.19 0 01-2.1-1.29 6.34 6.34 0 01-1.36-2.07c-.32-.82-.48-1.76-.48-2.80 0-1.08.19-2.02.58-2.83.40-.82.92-1.51 1.57-2.05a6.61 6.61 0 012.2-1.24 7.71 7.71 0 012.45-.40zm-.30 1.36a.87.87 0 00-.55.20c-.17.11-.32.33-.45.65-.11.32-.22.74-.30 1.26-.06.52-.11 1.17-.12 1.94h1.19c.60 0 1.01-.11 1.21-.35.22-.25.32-.7.32-1.34 0-.87-.13-1.49-.40-1.84-.25-.35-.54-.53-.88-.53zM59.31 26v-1.29l1.21-.27c.01-.60.02-1.24.02-1.92V19.09v-.88c0-.23-.00-.45-.02-.65 0-.20-.00-.39-.02-.58 0-.20-.00-.43-.02-.68l-1.36-.22v-1.03l5.59-1.74.45.27.20 2.91c.33-1.08.81-1.88 1.44-2.40.64-.52 1.26-.78 1.87-.78.62 0 1.14.18 1.56.55.43.35.7.92.78 1.69-.03.69-.23 1.22-.60 1.59-.37.37-.81.55-1.31.55-.42 0-.80-.11-1.13-.32-.32-.21-.64-.57-.98-1.06l-.12-.17c-.30.33-.60.77-.91 1.31a5.62 5.62 0 00-.58 1.67V22.40c0 .65.00 1.28.02 1.87l1.97.43V26h-8.04zm19.93 0h-2.27l-4.50-10.88-1.21-.25v-1.19h7.61v1.19l-1.34.30 2.1 5.79 1.94-5.82-1.39-.27v-1.19h4.75v1.19l-1.51.25L79.25 26zm11.35-1.79c.32 0 .67-.14 1.06-.43v-4.2c-.25.06-.49.16-.73.27a2.55 2.55 0 00-.55.35 2.97 2.97 0 00-.53.50 2.36 2.36 0 00-.40.73c-.1.27-.15.57-.15.91 0 .62.12 1.08.38 1.39.25.30.56.45.93.45zm4.17 2.20c-.81 0-1.45-.15-1.92-.45-.47-.30-.81-.75-1.03-1.34-.25.27-.49.51-.73.73-.22.22-.47.41-.75.58-.27.15-.57.27-.91.35a4.94 4.94 0 01-1.19.12c-1.01 0-1.81-.27-2.40-.83-.59-.57-.88-1.38-.88-2.43 0-.48.07-.93.22-1.34.15-.42.42-.81.81-1.16.40-.35.93-.68 1.59-.98.67-.30 1.52-.59 2.55-.86l.70-.17c.27-.06.54-.14.83-.22v-.91c0-.54-.02-.98-.07-1.34-.05-.37-.15-.66-.30-.88a1.05 1.05 0 00-.58-.45c-.23-.10-.55-.15-.96-.15h-.38v.86c0 1.03-.21 1.76-.63 2.20-.42.42-.90.63-1.44.63-1.03 0-1.67-.45-1.92-1.36 0-1.09.51-1.98 1.54-2.65 1.04-.69 2.59-1.03 4.63-1.03.87 0 1.62.09 2.22.27.60.18 1.09.48 1.46.88.38.38.66.89.83 1.51.16.62.25 1.36.25 2.22v5.79c0 .28.14.43.43.43a.54.54 0 00.30-.10c.1-.06.22-.22.38-.45l.73.40c-.30.77-.71 1.33-1.24 1.67-.52.32-1.24.48-2.15.48zm3.89-.38v-1.29l1.13-.25c.01-.60.02-1.25.02-1.94V10.21l-1.36-.17V8.89l5.77-1.13.43.27-.10 3.51v3.18c.99-.97 2.19-1.46 3.59-1.46.69 0 1.34.13 1.94.40a4.42 4.42 0 011.59 1.21c.45.54.81 1.21 1.06 2.02.27.81.40 1.75.40 2.83 0 1.04-.16 1.98-.48 2.80-.30.81-.70 1.50-1.21 2.07a5.24 5.24 0 01-1.74 1.31 4.83 4.83 0 01-2.04.45c-.74 0-1.38-.12-1.92-.38a4.12 4.12 0 01-1.39-1.03l-.50 1.41-5.18-.38zm7.16-2.05c.67 0 1.21-.33 1.61-1.01.40-.69.60-1.76.60-3.21 0-1.45-.20-2.47-.60-3.06-.40-.60-.94-.91-1.61-.91-.40 0-.80.12-1.19.38v7.46c.33.23.73.35 1.19.35zm8.40-15.08l5.84-1.13.43.27-.10 3.51v11.03l.05 1.89 1.13.22V26h-7.18v-1.29l1.13-.25a70.7 70.7 0 00.02-1.87c.01-.62.02-1.25.02-1.89v-10.4l-1.36-.25V8.89zm15.30 4.37c.91 0 1.70.14 2.37.43.67.28 1.24.68 1.69 1.18a4.84 4.84 0 011.01 1.77c.23.67.35 1.39.35 2.15 0 .27-.00.50-.02.71-.01.18-.05.39-.10.63h-7.03c.13 1.24.49 2.15 1.08 2.70.59.54 1.26.81 2.02.81.64 0 1.18-.11 1.64-.32a5.09 5.09 0 001.24-.86l.98.96c-.53 1.03-1.27 1.78-2.20 2.25-.92.47-2.02.70-3.28.70a7.83 7.83 0 01-2.63-.43 6.18 6.18 0 01-2.1-1.29 6.34 6.34 0 01-1.36-2.07c-.32-.82-.48-1.76-.48-2.80 0-1.08.19-2.02.58-2.83.40-.82.92-1.51 1.56-2.05a6.61 6.61 0 012.20-1.24 7.71 7.71 0 012.45-.40zm-.30 1.36a.87.87 0 00-.55.20c-.16.11-.32.33-.45.65-.11.32-.22.74-.30 1.26-.06.52-.11 1.17-.12 1.94h1.18c.60 0 1.01-.11 1.21-.35.22-.25.32-.7.32-1.34 0-.87-.13-1.49-.40-1.84-.25-.35-.54-.53-.88-.53z"/></g></svg>
