<svg viewBox="0 0 258 66" xmlns="http://www.w3.org/2000/svg"><path d="M17.6 13.8C19.5 11.9 22.7 11.9 24.6 13.8C26.5 15.7 26.6 18.7 24.8 20.7L24.6 20.9L12.0 33.5L35.4 56.8C37.3 58.6 37.4 61.7 35.6 63.6L35.4 63.8C33.6 65.7 30.5 65.8 28.6 64.0L28.4 63.8L1.4 37.1C-0.4 35.2 -0.4 32.1 1.2 30.2L1.4 30.0L17.6 13.8Z" fill="url(#paint0_linear)"></path><path d="M50.0 11C62.4 11 72.5 21.0 72.5 33.5C72.5 46.0 62.4 56.1 50.0 56.1C47.2 56.1 45.0 53.8 45.0 51.1C45.0 48.3 47.2 46.1 50.0 46.1C56.9 46.1 62.5 40.4 62.5 33.5C62.5 26.6 56.9 21 50.0 21C43.2 21 37.6 26.4 37.4 33.3L37.4 33.6L36.9 60.4C36.8 63.2 34.6 65.4 31.8 65.3C29.1 65.2 27.0 63.1 26.9 60.4V60.2L27.4 33.5C27.4 21.0 37.5 11 50.0 11Z" fill="#EE4645"></path><path d="M75.3 13.8C77.2 11.9 80.3 11.9 82.2 13.6L82.4 13.8L98.6 30.0C100.4 31.9 100.5 34.9 98.7 36.9L98.6 37.0L82.4 53.2C80.4 55.1 77.3 55.1 75.3 53.2C73.4 51.3 73.4 48.3 75.2 46.3L75.3 46.1L87.9 33.5L75.3 20.9C73.4 19.0 73.4 16.0 75.2 14.0L75.3 13.8Z" fill="#EE4645"></path><path d="M134.5 19.4C136.8 19.4 138.8 19.9 140.6 21.0C142.5 22.0 143.9 23.4 145.0 25.3C146.0 27.2 146.6 29.4 146.6 31.8C146.6 34.3 146.0 36.5 145.0 38.4C143.9 40.3 142.5 41.7 140.6 42.8C138.8 43.8 136.8 44.3 134.5 44.3C131.4 44.3 129.0 43.3 127.2 41.4V52.7H120.2V19.7H126.9V22.5C128.6 20.4 131.2 19.4 134.5 19.4ZM133.3 38.6C135.1 38.6 136.6 38 137.7 36.8C138.9 35.5 139.5 33.9 139.5 31.8C139.5 29.8 138.9 28.2 137.7 27.0C136.6 25.8 135.1 25.1 133.3 25.1C131.5 25.1 130.0 25.8 128.8 27.0C127.7 28.2 127.1 29.8 127.1 31.8C127.1 33.9 127.7 35.5 128.8 36.8C130.0 38 131.5 38.6 133.3 38.6ZM158.0 22.9C158.8 21.8 159.9 20.9 161.3 20.3C162.8 19.7 164.4 19.4 166.3 19.4V25.9C165.5 25.8 165.0 25.8 164.7 25.8C162.7 25.8 161.1 26.3 160.0 27.5C158.8 28.6 158.3 30.3 158.3 32.5V44H151.3V19.7H158.0V22.9ZM170.5 19.7H177.5V44H170.5V19.7ZM174.0 16.4C172.7 16.4 171.6 16.0 170.8 15.2C170.0 14.5 169.6 13.6 169.6 12.5C169.6 11.3 170.0 10.4 170.8 9.7C171.6 8.9 172.7 8.5 174.0 8.5C175.3 8.5 176.3 8.9 177.1 9.6C177.9 10.3 178.3 11.2 178.3 12.3C178.3 13.5 177.9 14.5 177.1 15.2C176.3 16.0 175.3 16.4 174.0 16.4ZM215.0 19.4C218.0 19.4 220.4 20.3 222.2 22.1C224.0 23.9 224.9 26.5 224.9 30.1V44H217.9V31.2C217.9 29.3 217.5 27.8 216.7 26.9C215.9 25.9 214.8 25.5 213.3 25.5C211.6 25.5 210.3 26.0 209.4 27.1C208.4 28.1 207.9 29.7 207.9 31.8V44H200.9V31.2C200.9 27.4 199.4 25.5 196.3 25.5C194.7 25.5 193.4 26.0 192.5 27.1C191.5 28.1 191.0 29.7 191.0 31.8V44H184.0V19.7H190.7V22.5C191.6 21.5 192.7 20.7 194.0 20.2C195.3 19.7 196.7 19.4 198.3 19.4C200.0 19.4 201.6 19.7 202.9 20.4C204.3 21.1 205.4 22.1 206.3 23.3C207.3 22.1 208.5 21.1 210.0 20.4C211.5 19.7 213.2 19.4 215.0 19.4ZM243.0 44.3C240.4 44.3 238.1 43.8 236.1 42.7C234.1 41.7 232.5 40.2 231.4 38.3C230.2 36.4 229.7 34.2 229.7 31.8C229.7 29.4 230.2 27.3 231.4 25.4C232.5 23.5 234.1 22.1 236.1 21.0C238.1 19.9 240.4 19.4 243.0 19.4C245.5 19.4 247.8 19.9 249.8 21.0C251.8 22.1 253.4 23.5 254.5 25.4C255.7 27.3 256.3 29.4 256.3 31.8C256.3 34.2 255.7 36.4 254.5 38.3C253.4 40.2 251.8 41.7 249.8 42.7C247.8 43.8 245.5 44.3 243.0 44.3ZM243.0 38.6C244.8 38.6 246.3 38 247.4 36.8C248.6 35.5 249.1 33.9 249.1 31.8C249.1 29.8 248.6 28.2 247.4 27.0C246.3 25.8 244.8 25.1 243.0 25.1C241.2 25.1 239.7 25.8 238.5 27.0C237.4 28.2 236.8 29.8 236.8 31.8C236.8 33.9 237.4 35.5 238.5 36.8C239.7 38 241.2 38.6 243.0 38.6Z" fill="#343434"></path><path d="M140.6 21.0L140.4 21.4L140.4 21.4L140.6 21.0ZM145.0 25.3L144.5 25.6L144.6 25.6L145.0 25.3ZM145.0 38.4L145.4 38.7L145.4 38.7L145.0 38.4ZM140.6 42.8L140.9 43.2L140.9 43.2L140.6 42.8ZM127.2 41.4L127.6 41.0L126.7 40.1V41.4H127.2ZM127.2 52.7V53.2H127.7V52.7H127.2ZM120.2 52.7H119.7V53.2H120.2V52.7ZM120.2 19.7V19.2H119.7V19.7H120.2ZM126.9 19.7H127.4V19.2H126.9V19.7ZM126.9 22.5H126.4V23.9L127.3 22.8L126.9 22.5ZM137.7 36.8L137.3 36.4L137.3 36.4L137.7 36.8ZM137.7 27.0L137.3 27.3L137.3 27.3L137.7 27.0ZM128.8 27.0L128.5 26.6L128.5 26.6L128.8 27.0ZM128.8 36.8L128.5 37.1L128.5 37.1L128.8 36.8ZM134.5 19.9C136.7 19.9 138.6 20.4 140.4 21.4L140.9 20.5C139.0 19.4 136.8 18.9 134.5 18.9V19.9ZM140.4 21.4C142.2 22.4 143.5 23.8 144.5 25.6L145.4 25.1C144.3 23.1 142.8 21.6 140.9 20.5L140.4 21.4ZM144.6 25.6C145.6 27.3 146.1 29.4 146.1 31.8H147.1C147.1 29.3 146.5 27.0 145.4 25.1L144.6 25.6ZM146.1 31.8C146.1 34.3 145.6 36.4 144.5 38.2L145.4 38.7C146.5 36.7 147.1 34.4 147.1 31.8H146.1ZM144.6 38.2C143.5 39.9 142.2 41.3 140.4 42.3L140.9 43.2C142.8 42.1 144.3 40.6 145.4 38.7L144.6 38.2ZM140.4 42.3C138.6 43.3 136.7 43.8 134.5 43.8V44.8C136.8 44.8 139.0 44.3 140.9 43.2L140.4 42.3ZM134.5 43.8C131.5 43.8 129.2 42.9 127.6 41.0L126.8 41.7C128.7 43.8 131.3 44.8 134.5 44.8V43.8ZM126.7 41.4V52.7H127.7V41.4H126.7ZM127.2 52.2H120.2V53.2H127.2V52.2ZM120.7 52.7V19.7H119.7V52.7H120.7ZM120.2 20.2H126.9V19.2H120.2V20.2ZM126.4 19.7V22.5H127.4V19.7H126.4ZM127.3 22.8C128.9 20.9 131.3 19.9 134.5 19.9V18.9C131.1 18.9 128.4 20.0 126.5 22.2L127.3 22.8ZM133.3 39.1C135.2 39.1 136.8 38.4 138.1 37.1L137.3 36.4C136.3 37.5 135.0 38.1 133.3 38.1V39.1ZM138.1 37.1C139.3 35.8 140 34.0 140 31.8H139C139 33.8 138.4 35.3 137.3 36.4L138.1 37.1ZM140 31.8C140 29.7 139.3 27.9 138.1 26.6L137.3 27.3C138.4 28.4 139 29.9 139 31.8H140ZM138.1 26.6C136.8 25.3 135.2 24.6 133.3 24.6V25.6C135.0 25.6 136.3 26.2 137.3 27.3L138.1 26.6ZM133.3 24.6C131.4 24.6 129.7 25.3 128.5 26.6L129.2 27.3C130.3 26.2 131.6 25.6 133.3 25.6V24.6ZM128.5 26.6C127.2 28.0 126.6 29.7 126.6 31.8H127.6C127.6 29.9 128.2 28.4 129.2 27.3L128.5 26.6ZM126.6 31.8C126.6 34.0 127.2 35.7 128.5 37.1L129.2 36.4C128.2 35.3 127.6 33.8 127.6 31.8H126.6ZM128.5 37.1C129.7 38.4 131.4 39.1 133.3 39.1V38.1C131.6 38.1 130.3 37.5 129.2 36.4L128.5 37.1ZM158.0 22.9H157.5V24.5L158.4 23.2L158.0 22.9ZM161.3 20.3L161.1 19.8L161.1 19.8L161.3 20.3ZM166.3 19.4H166.8V18.9H166.3V19.4ZM166.3 25.9L166.3 26.4L166.8 26.4V25.9H166.3ZM160.0 27.5L160.3 27.8L160.3 27.8L160.0 27.5ZM158.3 44V44.5H158.8V44H158.3ZM151.3 44H150.8V44.5H151.3V44ZM151.3 19.7V19.2H150.8V19.7H151.3ZM158.0 19.7H158.5V19.2H158.0V19.7ZM158.4 23.2C159.2 22.1 160.2 21.3 161.5 20.7L161.1 19.8C159.7 20.5 158.5 21.4 157.6 22.6L158.4 23.2ZM161.5 20.7C162.9 20.2 164.5 19.9 166.3 19.9V18.9C164.4 18.9 162.7 19.2 161.1 19.8L161.5 20.7ZM165.8 19.4V25.9H166.8V19.4H165.8ZM166.3 25.4C165.6 25.3 165.0 25.3 164.7 25.3V26.3C165.0 26.3 165.5 26.3 166.3 26.4L166.3 25.4ZM164.7 25.3C162.6 25.3 160.9 25.9 159.6 27.1L160.3 27.8C161.4 26.8 162.8 26.3 164.7 26.3V25.3ZM159.6 27.1C158.4 28.4 157.8 30.2 157.8 32.5H158.8C158.8 30.3 159.3 28.8 160.3 27.8L159.6 27.1ZM157.8 32.5V44H158.8V32.5H157.8ZM158.3 43.5H151.3V44.5H158.3V43.5ZM151.8 44V19.7H150.8V44H151.8ZM151.3 20.2H158.0V19.2H151.3V20.2ZM157.5 19.7V22.9H158.5V19.7H157.5ZM170.5 19.7V19.2H170.0V19.7H170.5ZM177.5 19.7H178.0V19.2H177.5V19.7ZM177.5 44V44.5H178.0V44H177.5ZM170.5 44H170.0V44.5H170.5V44ZM170.8 15.2L170.5 15.6V15.6L170.8 15.2ZM170.8 9.7L171.2 10.0V10.0L170.8 9.7ZM177.1 9.6L176.8 10.0L177.1 9.6ZM177.1 15.2L177.5 15.6L177.5 15.6L177.1 15.2ZM170.5 20.2H177.5V19.2H170.5V20.2ZM177.0 19.7V44H178.0V19.7H177.0ZM177.5 43.5H170.5V44.5H177.5V43.5ZM171.0 44V19.7H170.0V44H171.0ZM174.0 15.9C172.8 15.9 171.9 15.5 171.2 14.9L170.5 15.6C171.4 16.5 172.6 16.9 174.0 16.9V15.9ZM171.2 14.9C170.5 14.2 170.1 13.4 170.1 12.5H169.1C169.1 13.7 169.6 14.8 170.5 15.6L171.2 14.9ZM170.1 12.5C170.1 11.5 170.5 10.7 171.2 10.0L170.5 9.3C169.6 10.1 169.1 11.2 169.1 12.5H170.1ZM171.2 10.0C171.9 9.4 172.8 9.0 174.0 9.0V8.0C172.6 8.0 171.4 8.4 170.5 9.3L171.2 10.0ZM174.0 9.0C175.2 9.0 176.1 9.4 176.8 10.0L177.5 9.2C176.5 8.4 175.4 8.0 174.0 8.0V9.0ZM176.8 10.0C177.5 10.6 177.8 11.4 177.8 12.3H178.8C178.8 11.1 178.4 10.1 177.5 9.2L176.8 10.0ZM177.8 12.3C177.8 13.4 177.5 14.2 176.8 14.9L177.5 15.6C178.4 14.7 178.8 13.6 178.8 12.3H177.8ZM176.8 14.9C176.1 15.5 175.2 15.9 174.0 15.9V16.9C175.4 16.9 176.5 16.5 177.5 15.6L176.8 14.9ZM222.2 22.1L221.8 22.4L221.9 22.4L222.2 22.1ZM224.9 44V44.5H225.4V44H224.9ZM217.9 44H217.4V44.5H217.9V44ZM216.7 26.9L216.3 27.2L216.3 27.2L216.3 27.2L216.7 26.9ZM209.4 27.1L209.7 27.4L209.8 27.4L209.4 27.1ZM207.9 44V44.5H208.4V44H207.9ZM200.9 44H200.4V44.5H200.9V44ZM192.5 27.1L192.8 27.4L192.8 27.4L192.5 27.1ZM191.0 44V44.5H191.5V44H191.0ZM184.0 44H183.5V44.5H184.0V44ZM184.0 19.7V19.2H183.5V19.7H184.0ZM190.7 19.7H191.2V19.2H190.7V19.7ZM190.7 22.5H190.2V23.9L191.1 22.9L190.7 22.5ZM194.0 20.2L193.8 19.7L193.8 19.7L194.0 20.2ZM202.9 20.4L202.7 20.9L202.7 20.9L202.9 20.4ZM206.3 23.3L205.9 23.6L206.2 24.2L206.7 23.6L206.3 23.3ZM210.0 20.4L209.8 20.0L209.8 20.0L210.0 20.4ZM215.0 19.9C217.9 19.9 220.2 20.7 221.8 22.4L222.6 21.7C220.7 19.8 218.1 18.9 215.0 18.9V19.9ZM221.9 22.4C223.5 24.1 224.4 26.6 224.4 30.1H225.4C225.4 26.4 224.5 23.6 222.6 21.7L221.9 22.4ZM224.4 30.1V44H225.4V30.1H224.4ZM224.9 43.5H217.9V44.5H224.9V43.5ZM218.4 44V31.2H217.4V44H218.4ZM218.4 31.2C218.4 29.2 218.0 27.6 217.0 26.6L216.3 27.2C217.0 28.0 217.4 29.3 217.4 31.2H218.4ZM217.1 26.6C216.2 25.5 214.9 25.0 213.3 25.0V26.0C214.6 26.0 215.6 26.4 216.3 27.2L217.1 26.6ZM213.3 25.0C211.5 25.0 210.1 25.5 209.0 26.7L209.8 27.4C210.6 26.4 211.8 26.0 213.3 26.0V25.0ZM209.0 26.7C207.9 27.9 207.4 29.6 207.4 31.8H208.4C208.4 29.8 208.9 28.3 209.7 27.4L209.0 26.7ZM207.4 31.8V44H208.4V31.8H207.4ZM207.9 43.5H200.9V44.5H207.9V43.5ZM201.4 44V31.2H200.4V44H201.4ZM201.4 31.2C201.4 29.2 201.0 27.6 200.2 26.6C199.3 25.5 198.0 25.0 196.3 25.0V26.0C197.7 26.0 198.7 26.4 199.4 27.2C200.0 28.0 200.4 29.3 200.4 31.2H201.4ZM196.3 25.0C194.6 25.0 193.2 25.5 192.1 26.7L192.8 27.4C193.7 26.4 194.8 26.0 196.3 26.0V25.0ZM192.1 26.7C191.0 27.9 190.5 29.6 190.5 31.8H191.5C191.5 29.8 192.0 28.3 192.8 27.4L192.1 26.7ZM190.5 31.8V44H191.5V31.8H190.5ZM191.0 43.5H184.0V44.5H191.0V43.5ZM184.5 44V19.7H183.5V44H184.5ZM184.0 20.2H190.7V19.2H184.0V20.2ZM190.2 19.7V22.5H191.2V19.7H190.2ZM191.1 22.9C191.9 21.9 193.0 21.2 194.2 20.7L193.8 19.7C192.4 20.3 191.3 21.1 190.3 22.2L191.1 22.9ZM194.2 20.7C195.4 20.1 196.8 19.9 198.3 19.9V18.9C196.7 18.9 195.2 19.2 193.8 19.7L194.2 20.7ZM198.3 19.9C199.9 19.9 201.4 20.2 202.7 20.9L203.2 20.0C201.7 19.2 200.1 18.9 198.3 18.9V19.9ZM202.7 20.9C204.0 21.5 205.1 22.4 205.9 23.6L206.7 23.1C205.8 21.7 204.6 20.7 203.2 20.0L202.7 20.9ZM206.7 23.6C207.6 22.5 208.8 21.5 210.2 20.9L209.8 20.0C208.2 20.7 206.9 21.7 205.9 23.0L206.7 23.6ZM210.2 20.9C211.7 20.2 213.3 19.9 215.0 19.9V18.9C213.1 18.9 211.4 19.2 209.8 20.0L210.2 20.9ZM236.1 42.7L235.9 43.2L235.9 43.2L236.1 42.7ZM231.4 38.3L230.9 38.5L231.4 38.3ZM231.4 25.4L230.9 25.2L231.4 25.4ZM236.1 21.0L236.3 21.4L236.3 21.4L236.1 21.0ZM249.8 21.0L249.6 21.4L249.6 21.4L249.8 21.0ZM254.5 25.4L255.0 25.2L254.5 25.4ZM254.5 38.3L255.0 38.5L254.5 38.3ZM249.8 42.7L250.1 43.2L250.1 43.2L249.8 42.7ZM247.4 36.8L247.0 36.4L247.0 36.4L247.4 36.8ZM247.4 27.0L247.0 27.3L247.0 27.3L247.4 27.0ZM238.5 27.0L238.9 27.3L238.9 27.3L238.5 27.0ZM238.5 36.8L238.2 37.1L238.2 37.1L238.5 36.8ZM243.0 43.8C240.5 43.8 238.3 43.3 236.3 42.3L235.9 43.2C238.0 44.3 240.4 44.8 243.0 44.8V43.8ZM236.3 42.3C234.4 41.3 232.9 39.8 231.8 38.0L230.9 38.5C232.1 40.5 233.8 42.1 235.9 43.2L236.3 42.3ZM231.8 38.0C230.7 36.2 230.2 34.2 230.2 31.8H229.2C229.2 34.3 229.8 36.6 230.9 38.5L231.8 38.0ZM230.2 31.8C230.2 29.5 230.7 27.5 231.8 25.7L230.9 25.2C229.8 27.1 229.2 29.4 229.2 31.8H230.2ZM231.8 25.7C232.9 23.9 234.4 22.5 236.3 21.4L235.9 20.6C233.8 21.6 232.1 23.2 230.9 25.2L231.8 25.7ZM236.3 21.4C238.3 20.4 240.5 19.9 243.0 19.9V18.9C240.4 18.9 238.0 19.4 235.9 20.6L236.3 21.4ZM243.0 19.9C245.5 19.9 247.7 20.4 249.6 21.4L250.1 20.6C248.0 19.4 245.6 18.9 243.0 18.9V19.9ZM249.6 21.4C251.5 22.5 253.0 23.9 254.1 25.7L255.0 25.2C253.8 23.2 252.1 21.6 250.1 20.6L249.6 21.4ZM254.1 25.7C255.2 27.5 255.8 29.5 255.8 31.8H256.8C256.8 29.4 256.2 27.1 255.0 25.2L254.1 25.7ZM255.8 31.8C255.8 34.2 255.2 36.2 254.1 38.0L255.0 38.5C256.2 36.6 256.8 34.3 256.8 31.8H255.8ZM254.1 38.0C253.0 39.8 251.5 41.3 249.6 42.3L250.1 43.2C252.1 42.1 253.8 40.5 255.0 38.5L254.1 38.0ZM249.6 42.3C247.7 43.3 245.5 43.8 243.0 43.8V44.8C245.6 44.8 248.0 44.3 250.1 43.2L249.6 42.3ZM243.0 39.1C244.9 39.1 246.5 38.4 247.8 37.1L247.0 36.4C246.0 37.5 244.7 38.1 243.0 38.1V39.1ZM247.8 37.1C249.0 35.8 249.6 34.0 249.6 31.8H248.6C248.6 33.8 248.1 35.3 247.0 36.4L247.8 37.1ZM249.6 31.8C249.6 29.7 249.0 27.9 247.7 26.6L247.0 27.3C248.1 28.4 248.6 29.9 248.6 31.8H249.6ZM247.8 26.6C246.5 25.3 244.9 24.6 243.0 24.6V25.6C244.7 25.6 246.0 26.2 247.0 27.3L247.8 26.6ZM243.0 24.6C241.1 24.6 239.4 25.3 238.2 26.6L238.9 27.3C240.0 26.2 241.3 25.6 243.0 25.6V24.6ZM238.2 26.6C236.9 27.9 236.3 29.7 236.3 31.8H237.3C237.3 29.9 237.8 28.4 238.9 27.3L238.2 26.6ZM236.3 31.8C236.3 34.0 236.9 35.8 238.2 37.1L238.9 36.4C237.8 35.3 237.3 33.8 237.3 31.8H236.3ZM238.2 37.1C239.4 38.4 241.1 39.1 243.0 39.1V38.1C241.3 38.1 240.0 37.5 238.9 36.4L238.2 37.1Z" fill="#343434"></path><defs><linearGradient id="paint0_linear" x1="14.5" y1="41.1" x2="33.6" y2="58.5" gradientUnits="userSpaceOnUse"><stop stop-color="#EE4645"></stop><stop offset="1" stop-color="#810707"></stop></linearGradient></defs></svg>
