<svg width="90" height="29" viewBox="0 0 90 29" xmlns="http://www.w3.org/2000/svg"><path fill-rule="evenodd" clip-rule="evenodd" d="M0.2 19.5C-0.0 19.0 -0.0 18.5 0.1 18.0L10.3 1.5C10.8 0.6 12.2 0.7 12.7 1.6L21.9 21.7C22.3 22.5 21.9 23.3 21.1 23.6L6.7 27.9C6.1 28.1 5.5 27.8 5.1 27.3L0.2 19.5ZM11.4 6.3C11.5 5.9 12.2 5.8 12.4 6.2L18.8 21.0C18.9 21.3 18.8 21.6 18.5 21.7L8.5 24.7C8.2 24.8 7.8 24.5 7.9 24.1L11.4 6.3ZM48.4 21.6H51.3V11.2H48.4V21.6ZM48.3 8.5C48.3 7.6 48.8 7.2 49.9 7.2C50.9 7.2 51.4 7.6 51.4 8.5C51.4 9.0 51.3 9.3 51.0 9.6C50.8 9.8 50.4 9.9 49.9 9.9C48.8 9.9 48.3 9.5 48.3 8.5ZM87.1 16.8L86.0 16.8C85.2 16.8 84.6 17.0 84.2 17.3C83.8 17.5 83.6 18.0 83.6 18.5C83.6 19.3 84.0 19.7 85.0 19.7C85.6 19.7 86.1 19.5 86.5 19.1C86.9 18.8 87.1 18.3 87.1 17.6V16.8ZM88.0 21.6L87.4 20.2H87.3C86.9 20.8 86.4 21.2 85.9 21.4C85.4 21.7 84.7 21.8 83.9 21.8C82.9 21.8 82.1 21.5 81.5 20.9C81.0 20.4 80.7 19.5 80.7 18.5C80.7 17.4 81.1 16.6 81.8 16.1C82.6 15.5 83.8 15.2 85.3 15.2L87.1 15.1V14.7C87.1 13.6 86.6 13.1 85.5 13.1C84.7 13.1 83.7 13.4 82.6 13.9L81.7 11.9C82.8 11.3 84.2 11.0 85.6 11.0C87.0 11.0 88.1 11.3 88.8 11.9C89.6 12.5 89.9 13.4 89.9 14.7V21.6H88.0ZM72.4 21.6H69.6V15.5C69.6 14.8 69.5 14.2 69.2 13.9C69.0 13.5 68.6 13.3 68.0 13.3C67.3 13.3 66.8 13.6 66.5 14.1C66.1 14.6 66.0 15.5 66.0 16.7V21.6H63.1V11.2H65.3L65.7 12.5H65.8C66.1 12.1 66.5 11.7 67.1 11.4C67.6 11.2 68.2 11.0 68.9 11.0C70.4 11.0 71.5 11.5 72.0 12.5H72.3C72.5 12.1 73.0 11.7 73.5 11.4C74.0 11.2 74.6 11.0 75.3 11.0C76.5 11.0 77.4 11.3 78.0 11.9C78.6 12.5 78.9 13.5 78.9 14.8V21.6H76.1V15.5C76.1 14.8 75.9 14.2 75.7 13.9C75.4 13.5 75.0 13.3 74.5 13.3C73.8 13.3 73.3 13.5 72.9 14.0C72.6 14.5 72.4 15.3 72.4 16.4V21.6ZM60.1 20.9C60.9 20.4 61.2 19.6 61.2 18.5C61.2 18.0 61.1 17.6 61.0 17.2C60.8 16.8 60.5 16.5 60.1 16.2C59.7 15.9 59.2 15.6 58.3 15.3C57.4 14.9 56.8 14.6 56.6 14.5C56.3 14.3 56.2 14.1 56.2 13.8C56.2 13.3 56.6 13.1 57.4 13.1C57.9 13.1 58.4 13.2 58.8 13.3C59.3 13.5 59.7 13.7 60.3 13.9L61.1 11.8C59.9 11.3 58.7 11.0 57.5 11.0C56.2 11.0 55.2 11.3 54.4 11.8C53.7 12.3 53.4 13.0 53.4 13.9C53.4 14.5 53.5 14.9 53.6 15.3C53.8 15.6 54.1 16.0 54.4 16.3C54.8 16.5 55.4 16.9 56.2 17.2C56.8 17.4 57.2 17.6 57.5 17.8C57.9 18.0 58.1 18.1 58.2 18.3C58.4 18.4 58.4 18.6 58.4 18.8C58.4 19.4 57.9 19.7 56.9 19.7C56.4 19.7 55.8 19.6 55.2 19.5C54.5 19.3 53.9 19.1 53.4 18.8V21.2C53.8 21.4 54.3 21.5 54.9 21.6C55.4 21.7 56.1 21.8 56.8 21.8C58.3 21.8 59.4 21.5 60.1 20.9ZM46.9 11.1C46.7 11.1 46.4 11.0 46.0 11.0C45.3 11.0 44.8 11.2 44.2 11.6C43.7 11.9 43.2 12.4 42.9 13.0H42.8L42.3 11.2H40.2V21.6H43.0V16.3C43.0 15.5 43.3 14.8 43.8 14.4C44.3 13.9 45.0 13.7 45.9 13.7C46.2 13.7 46.5 13.7 46.7 13.8L46.9 11.1ZM31.9 14.4H32.8C33.7 14.4 34.4 14.2 34.8 13.9C35.3 13.5 35.5 13.0 35.5 12.4C35.5 11.7 35.3 11.2 34.9 10.9C34.6 10.5 34.0 10.4 33.2 10.4H31.9V14.4ZM38.4 12.3C38.4 13.7 37.9 14.8 37.0 15.6C36.1 16.4 34.8 16.8 33.1 16.8H31.9V21.6H29.0V8.0H33.3C35.0 8.0 36.2 8.4 37.1 9.1C37.9 9.8 38.4 10.9 38.4 12.3Z" fill="black"></path></svg>
