<svg width="718" height="198" xmlns="http://www.w3.org/2000/svg"><g fill-rule="nonzero" fill="none"><path d="M127.55 81.75c0-18-12.32-31.16-32.46-31.16H49.87v96.67h20.58v-34.64h15.07l19 34.64h23.62l-21.74-36.81c10.43-2.45 21.15-11.59 21.15-28.7zM185.39 49C156.26 49 135 69.87 135 99s21.3 50 50.43 50c29.28 0 50.58-20.87 50.58-50s-21.34-50-50.62-50zm0 81.74c-17.83 0-29.27-13.77-29.27-31.74 0-18.12 11.44-31.74 29.27-31.74S214.81 80.88 214.81 99c0 18-11.59 31.74-29.42 31.74zM294.28 67.26a26.45 26.45 0 0 1 23.47 14.06l17.69-8.7c-6.82-12-19.13-23.62-41.16-23.62-28.27 0-50.73 20.29-50.73 50s22.46 50 50.73 50c22 0 34.2-11.74 41.16-23.77l-17.69-8.55a26.19 26.19 0 0 1-23.47 14.06c-16.82 0-29.57-13.48-29.57-31.74 0-18.26 12.75-31.74 29.57-31.74zM425.84 50.59h-25.36l-34.2 43.19V50.59H345.7v96.67h20.58v-29.71l7.53-8.99 29.28 38.7h25.36l-41.01-51.3z" fill="#609"/><path d="M471.45 88.13c-11.16-2.61-19.28-4.64-19.28-11.16 0-5.8 4.93-9.85 14.21-9.85a41.23 41.23 0 0 1 27.68 10.58l11.45-15.08c-9.57-8.84-22.32-13.48-37.68-13.48-22.76 0-36.67 13.05-36.67 29.14 0 21.59 20.29 25.94 36.09 29.56 11.16 2.61 19.56 5.07 19.56 12.32 0 5.51-5.51 10.87-16.81 10.87a42.38 42.38 0 0 1-30.72-13L428 133.64c9.13 9.13 22.47 15.36 41 15.36 26.08 0 38.69-13.33 38.69-31-.01-21.46-20.3-26.25-36.24-29.87zM520.07 147.26h68.41v-17.82h-47.83v-22.47h46.82V89.29h-46.82V68.28h47.83V50.59h-68.41zM596.03 50.59v18.12h28.26v78.55h20.73V68.71h28.11V50.59z" fill="#609"/><path fill="#63C0DD" d="M60 20V0H0v198h60v-20H20V20zM658 20V0h60v198h-60v-20h40V20z"/></g></svg>