<svg xmlns="http://www.w3.org/2000/svg" width="640" height="640">
  <path d="M292.4 53.2s8.7 18.6-3.6 39.2c-6.2 10.2-163.1 43.6-224.3 128.6-37.5 58.7-95 228.7 88.7 341.2 82.5 42.5 117.5 41.2 117.5 41.2s-55-38.7-20-65 86.2-38.7 100-75c16.2 12.5 42.5 38.7 67.5 36.2-2.5-16.2-8.7-22.5 11.2-25s30-2.5 30-2.5-18.7-15-40-16.2-61.2-42.5-60-60c26.2-15 60-40 80-32.5s40 20 43.7 31.2c0 7.5-3.7 20 12.5 10s12.5-16.2 18.7-30 7.5-16.2-6.2-27.5-46.2-37.5-72.5-30-81.2 28.7-108.7 2.5c11.2-25 28.7-65 20-92.5 16.2-12.5 35-26.2 37.5-48.7 18.7-2.5 58.7-13.7 51.2-33.7S374.9 36.0 293.6 53.5" fill="#fff"/>
  <path d="M551.9 257.4c13.7-36.2 36.2-97.5 15-100s-45 55-51.2 70-31.2 90-17.5 100 53.7-70 53.7-70" fill="#fff"/>
  <path d="M435.6 159.9c3.9-6.1 7.2-.8-9.6.4-16.8 1.2-37.0 6.4-40.4 13.8-6.4 13.7-8.6 47.6-33.0 55.1-1.2 8.7 0 28.7 34.3 32.5s35.6-18.7 55.6-18.1 18.1-6.8 11.2-12.5-30.6-43.7-30.6-56.2 8.1-8.1 12.5-15M128.7 536.8s-10.6-28.1 20.6-43.1 59.3-3.1 65 7.5-9.3 53.1-63.1 53.7c-13.1-10.6-22.5-18.1-22.5-18.1" fill="#da687d"/>
  <g opacity=".7" transform="matrix(1.25 0 0 -1.25 -26.846 640)">
    <path d="M466.2 369.8c.4-1.5.2-3.1.2-4.8-.0-1.6-.1-3.3-.6-4.9.1-.3-.0-.8-.0-1.2-.4-.5-.1-.9-.2-1.3.6-.6 1.5-1.3 1.1-2.1-.2-.5-.8-.7-1.4-.9-.3-1.4-.7-3.0-1.0-4.6-.0-.4-.0-1.0-.1-1.4-.3-1.0-.6-1.9-.9-3.0-.2-.9.0-2.6-1.0-2.8-.4-1.0-.6-1.8-1.1-2.8-.2-.1-.4.1-.6.0-.3-.3-.2-.8-.5-1.1-.2-.2-.5-.1-.6-.3-.3-.5-.2-1.2-.5-1.9a4.7 4.7 0 0 1-1.1-1.4c-.5-1.1-.6-2.6-1.5-3.5-.2-.2-.7-.3-1.0-.6-.2-.2-.4-.6-.6-.9-.3-.4-.6-1.0-.9-1.5-1.0-1.7-2.3-3.7-3.3-5.6-.1-.3-.2-.8-.3-1.1-.3-.8-.9-1.5-1.2-2.3-.5-1.2-1.3-3.3-2.5-4.4-.1-.1-.4-.2-.6-.4-.1-.2-.1-.5-.3-.8-.0-.1-.4-.1-.5-.3-.2-.2-.3-.4-.4-.6-.4-.3-1.0-.5-1.3-.9-.2-.3-.3-.7-.6-1.1-.3-.4-.7-.7-1.0-1.2-.9-1.2-1.3-2.8-2.7-3.3-.3-.1-.8-.1-1.2-.2-.3.3-.0.8-.1 1.1-.0.2-.2.3-.3.5-.1.4-.3 1.3-.3 1.8.0.5.3.9.3 1.6.0.5-.1 1.2-.1 1.8-.0.3.0.6.0.9-.0.5-.0.8.0 1.4.0.7-.0 1.4-.1 2.1.3 1.7.5 3.0 1.0 4.9.2.8.7 2.3 1.1 3.3.8 1.8 1.6 3.9 2.6 5.9.3.6.8 1.1 1.1 1.8.1.3.2.8.3 1.2 1.6 3.3 3.8 6.2 5.5 9.7 1.4 2.8 2.8 5.4 4.7 8.5.8 1.4 1.5 2.9 2.4 4.0.6.8 1.6 2.4 2.3 3.9.2.5.2 1.0 1.0 1.1.7.9 1.3 2.0 2.1 2.8.2.2.5.3.7.4.2.2.3.5.6.7.5.4 1.4.8 2.0 1.6.1.2.2.4.4.6.4.5 1.1 1.8 1.8 2.0.0.0.2.0.3-.0" fill="#da687d"/>
  </g>
  <g opacity=".7" transform="matrix(1.25 0 0 -1.25 -26.846 640)">
    <path d="M459.8 349.4c.6-1.9.7-4.1.9-6.2-.0-2.1-.1-4.5-.7-6.9.0-.4-.1-1.1-.1-1.6-.5-.7-.2-1.2-.4-1.8.7-.8 1.6-1.6 1.1-2.8-.3-.8-1.1-1.0-1.8-1.4-.6-1.9-1.2-4.2-1.8-6.3-.1-.6-.2-1.3-.4-1.9-.5-1.3-1.1-2.6-1.5-4.1-.4-1.2-.3-3.4-1.6-3.6-.6-1.3-.9-2.3-1.6-3.6-.3-.2-.5.1-.8-.0-.3-.4-.4-1.0-.7-1.4-.2-.2-.5-.2-.7-.5-.4-.6-.3-1.5-.7-2.4a6.5 6.5 0 0 1-1.1-1.3l-.1-.2-.0-.1-.0-.0-.0-.0v-.0l.0.1-.0-.0-.0-.0-.0-.0-.0-.0-.0-.0c-.6-1.6-.8-3.6-1.8-4.9-.3-.4-.8-.5-1.1-.9-.2-.3-.4-.9-.7-1.3-.3-.6-.7-1.4-1.0-2.1-1.0-2.4-2.5-5.2-3.5-8.0-.1-.5-.2-1.1-.3-1.6-.4-1.1-1.0-2.2-1.3-3.3-.6-1.7-1.4-4.7-3.0-6.3-.1-.2-.5-.4-.7-.6-.2-.3-.1-.7-.4-1.1-.1-.1-.4-.2-.6-.4-.2-.3-.3-.6-.5-.9-.5-.5-1.2-.8-1.7-1.4-.3-.4-.5-1.0-.9-1.5-.4-.5-.9-1.1-1.4-1.6l-1.8-2.6c-.5-.8-1.2-1.5-2.0-1.8-.4-.2-1.0-.1-1.5-.2-.3.4.0 1.0.0 1.5-.0.2-.2.5-.2.7-.0.6-.1 1.7-.0 2.3.0.6.5 1.1.7 2.0.1.7-.0 1.5-.0 2.3.0.3.1.7.1 1.2.0.6-.0.9.1 1.7.1.9-.0 1.8-.1 2.7.4 2.1.6 3.8 1.2 6.3.2 1.1.7 3.1 1.2 4.4.4 1.3.9 2.6 1.3 4.0.4 1.4.9 2.8 1.4 4.2.3.9.8 1.7 1.2 2.7.2.5.2 1.1.4 1.7.4 1.2.9 2.5 1.5 3.6a147.5 147.5 0 0 0 1.7 3.3l.9 1.8c.3.5.6 1.1.9 1.7a75.5 75.5 0 0 1 1.8 3.6 129.6 129.6 0 0 0 3.1 5.7 340.1 340.1 0 0 0 3.6 5.8c1.1 1.8 2.2 3.8 3.3 5.3.8 1.1 2.1 3.1 3.0 5.1.3.7.3 1.3 1.1 1.4.9 1.2 1.6 2.6 2.4 3.7.2.2.5.4.8.7.2.3.4.7.6 1.0.5.6 1.6 1.2 2.2 2.5.1.3.1.6.3 1.0.3.8 1.0 2.7 1.7 3.1.0.0.2.0.3.0" fill="#da687d"/>
  </g>
  <path d="M520.8 231.2s-10 38.3-5.8 70l5.8-70m11.8-25.9c-.7-2.6-5.7 74.3-4.2 77.0 1.4 2.6 8.9-60.7 4.2-77.0" fill="#fff"/>
  <path d="M294.0 57.9s5.8 33.2-48.3 50.7-128.8 32.4-183.8 98.3c-55 65.8-65 174.9-27.5 246.6 37.5 71.6 129.1 160.8 294.1 160.8S624.6 487.7 624.6 400.2c0-45.8-25.1-35.6-33.8 7.3-7.8 38.8-80.5 183.6-263.0 183.6-182.5 0-275.8-110.8-287.5-205.8-11.6-95 14.8-176.8 110.7-226.0 95.8-49.1 156.6-29.5 143.3-101.2" fill="#2d2b2c"/>
  <path d="M248.5 314.5s-10.8 50.0-63.3 74.1c-52.5 24.1-75 37.5-82.5 79.1 20-33.3 78.3-40 110.8-72.5s35-80.8 35-80.8m14.1-115.8s45 58.3 98.3 30c53.3-28.3 25.8-94.1 25-98.3-.8-4.1 5.8 73.3-34.1 86.6-40 13.3-89.1-18.3-89.1-18.3M145.2 547.0s28.3 1.6 49.1-21.6c20.8-23.3 9.1-60 43.3-73.3 34.1-13.3 57.5-5 57.5-5s-60.8 8.3-65.8 43.3-13.3 50.8-26.6 61.6c-13.3 10.8-30.8 12.5-30.8 12.5l-26.6-17.5z" fill="#2d2b2c"/>
  <path d="M273.7 365.6s50.6-8.4 73.7-60c18.9-42.2 6.2-78.7 6.2-78.7l-25.6 3.7s10.6 30.6 2.5 58.1-26.8 59.3-56.8 76.8m272.6-117.0c-18.0 45.1-44.7 77.5-47.8 75.8-5.6-3.1-.4-42.5 17.6-87.7 18.0-45.1 40.5-79.5 48.8-76.2 8.3 3.2-.6 42.9-18.6 88.1m26.2-90.6c-20.5-11.1-45.8 30.5-66.5 79.1-20.7 48.6-23.1 87.7-7.1 94.7 21.3 9.3 41.4-27.8 62.1-76.4s30-87.5 11.5-97.5" fill="#2d2b2c"/>
  <path d="M199.4 402.9s12.9 38.7 77.5 30.8c60.8-7.5 86.9-30.9 124.1-54.1 26.6-16.6 25-9.1 28.3-8.3 3.3.8 18.3 10 34.1 8.3.8 8.3-7.4 1.6-10.8 9.1-1.6 5 12.6 28.5 33.3 25 34.1-5.8 24.5-20 31.2-35.8 6.6-15.8 11.2-24.1-22.0-46.6-25.8-23.3-40-17.4-52.5-17.4s-45 17.4-67.5 13.3-36.6-12.5-36.6-12.5l-14.9 16.6s27.4 20.8 59.1 13.3c31.6-7.5 55.0-31.6 82.5-19.1 27.5 12.5 32.8 20.8 41.2 27.0 9.5 7.0 10.4 14.5 3.7 21.2-6.6 6.6.0 11.6-4.1 19.1-4.1 7.5-25 10.8-25 10.8s22.8-29.3-5-31.6c-20-1.6-32.5-28.3-60.8-14.1-40.6 20.3-98.3 55-138.3 59.1-38.9 4.0-53.3-8.3-63.3-31.6-11.6 10-14.1 17.5-14.1 17.5" fill="#2d2b2c"/>
  <path d="M342.7 411.2s28.3 15 20 47.5-45.8 55-70 65.8c-24.1 10.8-42.1 25.1-24.1 34.1 15 7.5 23.3-11.6 45-15 21.6-3.3 40.8 5 42.5 17.5-9.1-5-15.8-5-15.8-5s7.5 5 8.3 13.3c.8 8.3-.8 4.1-5.8 4.1-12.5 0-14.1-10.8-25-9.1-27.5 2.5-29.1 14.1-44.1 15.8-15 1.6-40-6.6-36.6-25.8 3.3-19.1 29.1-32.5 53.3-42.5 24.1-10 60.8-41.6 55.8-70-5-28.3-26.6-22.5-26.6-22.5l23.3-8.3zm71.0-235.9s11.8 5.9 19.3 35.9c5 10.8 11.6 19.5 17.5 22.0 5.8 2.5-2.5 5-6.6 4.1-4.1-.8-12.9-4.5-18.7.4s-20 18.3-40 15c-20-3.3-37.0-16.0-37.0-16.0s7.5 33.1 52.0 31.0c30.9-1.4 24.1-17.5 45-20.8 20.8-3.3 18.6-13.8 14.1-22.5-7.0-13.7-29.1-17.0-31.6-57.2-2.5-4.1-18.1.5-13.9 8.0m71.2 209.1c1.8 1.8-14.7 39.3-14.7 39.3s-3.3 9.1-12.2 5.9c-9.1-3.3-6.7-9.9-6.7-9.9l21.2-38.5s11.6 2.3 12.5 3.2m23.4-53.3l-4.1 12.5-13.6-10.4 3.6-7.9 14.1 5.8z" fill="#2d2b2c"/>
  <path d="M356.0 403.7c-2.5 9.1 29.1 62.5 50.8 59.1 21.6-3.3 24.9 3.3 18.3 7.5-6.6 4.1-18.3 5.8-16.6 11.6 1.6 5.8 6.2 11.6-4.5 10-10.8-1.6-32.9-13.3-46.2-35.8-4.1 13.3-5.8 17.5-5.8 17.5s42.5 44.1 85.8 25.8c-7.5-5.8-28.3-4.1-10.8-14.1s30.8-13.3 39.1 2.5c4.1-.8 4.1-37.5-50.8-35-19.1-2.5-45-40-45-59.1-5 5-11.6.8-14.1 10m169.4-184.3s-10.9 32.8-6.3 60l6.3-60m11.2-19.4c-.5-2.0-5.0 57.2-4.0 59.2 1.0 2.0 7.3-46.6 4.0-59.2m-145.6-32.8s47.0-4.1 38.7-22.9c-25.1-56.5-72.9-89.5-161.2-86.2 50-20 92.5-17.5 133.3 17.5 20.4 17.5 29.8 38.8 37.1 55.1 11.6 26 8.2 28.4-4.6 35.7-15.7 8.8-42.7 3.2-43.3.8" fill="#2d2b2c"/>
  <path d="M395.8 174.2s12.9 8.9 23.1 1.6c4.6-4.8 7.7-7.4-5.4-6.8l-16.1-.6c-11.1-2.2-10.9 1.1-1.5 5.8z" fill="#2d2b2c"/>
</svg>
